<?xml version="1.0" encoding="utf-8"?>
<!-- Generator: Adobe Illustrator 23.0.4, SVG Export Plug-In . SVG Version: 6.00 Build 0)  -->
<svg version="1.1" id="レイヤー_1" xmlns="http://www.w3.org/2000/svg" xmlns:xlink="http://www.w3.org/1999/xlink" x="0px"
	 y="0px" viewBox="0 0 300 98" style="enable-background:new 0 0 300 98;" xml:space="preserve">
<style type="text/css">
	.st0{fill:#00A0E9;}
	.st1{fill:#3E3A39;}
</style>
<g>
	<path class="st0" d="M299.8,83.3l-8.4,12.8c-0.1,0.2-0.4,0.4-0.6,0.4c-0.2,0-0.5,0-0.7-0.1c-4.3-2.9-7.6-5.7-10.1-8.6
		c-2.8,3.3-6.4,6.2-11.1,8.9l-0.5,0.1l-0.2,0l-0.6-0.4L260.1,83c-0.1-0.2-0.2-0.5-0.1-0.7c0.1-0.2,0.2-0.5,0.4-0.6
		c8.4-4.9,10.8-8.5,10.8-23.2V31.5c0-0.5,0.4-1,0.9-1h15.1c0.5,0,0.9,0.4,0.9,1v26.9c0,15.1,2.9,17.8,11.3,23.5
		C300,82.3,300.1,82.9,299.8,83.3 M279.8,23.8c6.2,0,11.3-5.2,11.3-11.5c0-6.4-5.1-11.5-11.3-11.5c-6.2,0-11.3,5.2-11.3,11.5
		C268.5,18.7,273.5,23.8,279.8,23.8"/>
	<path class="st1" d="M172.1,90.1c-0.3,0-0.5-0.1-0.7-0.3c-0.2-0.2-0.2-0.5-0.2-0.7l3.5-14.1c0.1-0.4,0.4-0.7,0.8-0.7h13.8
		c1,0,1.7-0.5,2-0.8c0.3-0.3,0.8-1,0.8-2c0-0.8-0.3-1.5-0.8-2L191,69l-0.5-0.3l-0.1-0.1l-0.2,0l-4.3-0.5c-1.3-0.3-2.4-0.6-3.5-1.1
		c-1.1-0.5-2.1-1.1-3.1-1.7c-1-0.7-1.9-1.4-2.7-2.3c-3.5-3.5-5.4-8.2-5.4-13.2s1.9-9.7,5.4-13.2c3.5-3.5,8.1-5.5,13-5.5h17.3
		c0.3,0,0.5,0.1,0.7,0.3c0.2,0.2,0.2,0.5,0.1,0.7L204,46.4c-0.1,0.4-0.4,0.7-0.8,0.7h-13.8c-0.7,0-1.4,0.3-2,0.8
		c-0.3,0.3-0.8,1-0.8,2c0,1,0.5,1.7,0.8,2l0.4,0.3l0.5,0.3l0.3,0.1l4.4,0.5c1.2,0.3,2.4,0.6,3.5,1.1c1.1,0.5,2.1,1,3.1,1.7
		c1,0.7,1.9,1.4,2.7,2.3c3.5,3.5,5.4,8.2,5.4,13.2c0,5-1.9,9.7-5.4,13.2c-3.5,3.5-8.1,5.5-13,5.5L172.1,90.1L172.1,90.1z"/>
	<path class="st1" d="M214.3,90.1c-0.3,0-0.5-0.1-0.7-0.3c-0.2-0.2-0.2-0.5-0.2-0.7l3.5-14.1c0.1-0.4,0.4-0.7,0.8-0.7h13.8
		c0.7,0,1.4-0.3,2-0.8c0.3-0.3,0.8-1,0.8-2c0-1-0.5-1.7-0.8-2l-0.4-0.4l-0.5-0.3l-0.1-0.1l-0.2,0l-4.3-0.5c-1.3-0.3-2.4-0.6-3.5-1.1
		c-1.1-0.5-2.1-1-3.1-1.7c-1-0.7-1.9-1.4-2.7-2.3c-3.5-3.5-5.4-8.2-5.4-13.2s1.9-9.7,5.4-13.2c3.5-3.5,8.1-5.5,13-5.5h17.3
		c0.3,0,0.5,0.1,0.7,0.3c0.2,0.2,0.2,0.5,0.2,0.7l-3.5,14.1c-0.1,0.4-0.4,0.7-0.8,0.7h-13.8c-0.7,0-1.4,0.3-2,0.8
		c-0.3,0.3-0.8,1-0.8,2c0,1,0.5,1.7,0.8,2l0.4,0.3l0.5,0.3l0.2,0.1l0.2,0l4.3,0.5c1.3,0.3,2.4,0.6,3.5,1.1c1.1,0.5,2.1,1,3.1,1.7
		c1,0.7,1.9,1.4,2.7,2.3c3.5,3.5,5.4,8.2,5.4,13.2c0,5-1.9,9.7-5.4,13.2c-3.5,3.5-8.1,5.5-13,5.5L214.3,90.1L214.3,90.1z"/>
	<path class="st1" d="M133.8,30.5c-16.1,0-29.2,13.4-29.2,29.8c0,16.4,13.1,29.8,29.2,29.8c4.2,0,8.4-0.9,12.2-2.8v1.8
		c0,0.5,0.4,1,0.9,1H162c0.5,0,0.9-0.4,0.9-1V60.3C163,43.9,149.9,30.5,133.8,30.5 M133.8,47.8c6.8,0,12.2,5.6,12.2,12.5
		c0,6.9-5.5,12.5-12.2,12.5c-6.8,0-12.2-5.6-12.2-12.5C121.5,53.4,127,47.8,133.8,47.8"/>
	<path class="st1" d="M91.4,54.5V12.3c0-0.5-0.4-1-0.9-1H75.4c-0.5,0-0.9,0.4-0.9,1v42.3c0,18.3,5.1,28.6,18.9,37.9l0.5,0.2
		c0.3,0,0.6-0.1,0.8-0.4l8.4-12.8c0.3-0.4,0.2-1-0.3-1.3C93.7,72,91.4,67.1,91.4,54.5"/>
	<path class="st1" d="M38.6,28.6c5.8,0,11.2,2.3,15.3,6.5c0.4,0.4,1,0.4,1.3,0l10.7-10.9c0.2-0.2,0.3-0.4,0.3-0.7
		c0-0.3-0.1-0.5-0.3-0.7c-7.3-7.4-17-11.5-27.3-11.5c-10.3,0-20,4.1-27.3,11.5C4,30.3,0,40.2,0,50.7c0,10.5,4,20.4,11.3,27.8
		c7.3,7.4,17,11.5,27.3,11.5c10.3,0,20-4.1,27.3-11.5c0.2-0.2,0.3-0.4,0.3-0.7c0-0.3-0.1-0.5-0.3-0.7L55.3,66.3
		c-0.4-0.4-1-0.4-1.3,0c-4.1,4.2-9.5,6.5-15.3,6.5c-5.8,0-11.2-2.3-15.3-6.5c-4.1-4.2-6.4-9.7-6.4-15.6c0-5.9,2.3-11.5,6.4-15.6
		C27.4,30.9,32.8,28.6,38.6,28.6"/>
</g>
</svg>
