<svg xmlns="http://www.w3.org/2000/svg" viewBox="0 0 100 100" width="200px" height="200px"><circle cx="77" cy="13" r="1" fill="#f1bc19"/><circle cx="50" cy="50" r="37" fill="#e4e4f9"/><circle cx="83" cy="15" r="4" fill="#f1bc19"/><circle cx="87" cy="24" r="2" fill="#8889b9"/><circle cx="81" cy="76" r="2" fill="#fbcd59"/><circle cx="15" cy="63" r="4" fill="#fbcd59"/><circle cx="25" cy="87" r="2" fill="#8889b9"/><circle cx="23.5" cy="67.5" r="2.5" fill="#fff"/><circle cx="77.5" cy="30.5" r="1.5" fill="#fff"/><path fill="#f1bc19" d="M66.719,73H35.281C31.26,73,28,69.74,28,65.719V34.281C28,30.26,31.26,27,35.281,27h31.438 C70.74,27,74,30.26,74,34.281v31.438C74,69.74,70.74,73,66.719,73z"/><path fill="#472b29" d="M66.719,73.7H35.281c-4.401,0-7.981-3.58-7.981-7.981V34.281c0-4.401,3.581-7.981,7.981-7.981 h31.438c4.401,0,7.981,3.581,7.981,7.981v31.438C74.7,70.12,71.12,73.7,66.719,73.7z M35.281,27.7 c-3.629,0-6.581,2.952-6.581,6.581v31.438c0,3.629,2.952,6.581,6.581,6.581h31.438c3.629,0,6.581-2.952,6.581-6.581V34.281 c0-3.629-2.952-6.581-6.581-6.581H35.281z"/><path fill="#1fa363" d="M65.667,68H36.333C34.492,68,33,66.508,33,64.667V35.333C33,33.492,34.492,32,36.333,32h29.333 C67.508,32,69,33.492,69,35.333v29.333C69,66.508,67.508,68,65.667,68z"/><path fill="#472b29" d="M68.5,41c-0.276,0-0.5-0.224-0.5-0.5v-5.563C68,33.869,67.131,33,66.063,33H56.5 c-0.276,0-0.5-0.224-0.5-0.5s0.224-0.5,0.5-0.5h9.563C67.682,32,69,33.318,69,34.938V40.5C69,40.776,68.776,41,68.5,41z"/><path fill="#472b29" d="M51.5,33h-9c-0.276,0-0.5-0.224-0.5-0.5s0.224-0.5,0.5-0.5h9c0.276,0,0.5,0.224,0.5,0.5 S51.776,33,51.5,33z"/><path fill="#472b29" d="M33.5,61c-0.276,0-0.5-0.224-0.5-0.5V34.938C33,33.318,34.318,32,35.938,32H40.5 c0.276,0,0.5,0.224,0.5,0.5S40.776,33,40.5,33h-4.563C34.869,33,34,33.869,34,34.938V60.5C34,60.776,33.776,61,33.5,61z"/><g><path fill="#472b29" d="M66.063,69H35.938C34.318,69,33,67.683,33,66.063V63.5c0-0.276,0.224-0.5,0.5-0.5 s0.5,0.224,0.5,0.5v2.563C34,67.131,34.869,68,35.938,68h30.125C67.131,68,68,67.131,68,66.063V43.5c0-0.276,0.224-0.5,0.5-0.5 s0.5,0.224,0.5,0.5v22.563C69,67.683,67.682,69,66.063,69z"/></g><g><path fill="#5ebe8f" d="M42.393,53.5h-0.786c-2.75,0-5.107,1.413-5.107,2.333V57.5h11v-1.667 C47.5,54.913,45.143,53.5,42.393,53.5z"/><path fill="#472b29" d="M47.75,57.75h-11.5v-1.917c0-1.139,2.522-2.583,5.357-2.583h0.786 c2.835,0,5.357,1.444,5.357,2.583V57.75z M36.75,57.25h10.5v-1.417c0-0.704-2.199-2.083-4.857-2.083h-0.786 c-2.658,0-4.857,1.379-4.857,2.083V57.25z"/></g><g><circle cx="42" cy="49" r="2.5" fill="#5ebe8f"/><path fill="#472b29" d="M42,51.75c-1.517,0-2.75-1.233-2.75-2.75s1.233-2.75,2.75-2.75s2.75,1.233,2.75,2.75 S43.517,51.75,42,51.75z M42,46.75c-1.241,0-2.25,1.009-2.25,2.25s1.009,2.25,2.25,2.25s2.25-1.009,2.25-2.25 S43.241,46.75,42,46.75z"/></g><g><path fill="#5ebe8f" d="M60.393,53.5h-0.786c-2.75,0-5.107,1.413-5.107,2.333V57.5h11v-1.667 C65.5,54.913,63.143,53.5,60.393,53.5z"/><path fill="#472b29" d="M65.75,57.75h-11.5v-1.917c0-1.139,2.522-2.583,5.357-2.583h0.786 c2.835,0,5.357,1.444,5.357,2.583V57.75z M54.75,57.25h10.5v-1.417c0-0.704-2.199-2.083-4.857-2.083h-0.786 c-2.658,0-4.857,1.379-4.857,2.083V57.25z"/></g><g><circle cx="60" cy="49" r="2.5" fill="#5ebe8f"/><path fill="#472b29" d="M60,51.75c-1.517,0-2.75-1.233-2.75-2.75s1.233-2.75,2.75-2.75s2.75,1.233,2.75,2.75 S61.517,51.75,60,51.75z M60,46.75c-1.241,0-2.25,1.009-2.25,2.25s1.009,2.25,2.25,2.25s2.25-1.009,2.25-2.25 S61.241,46.75,60,46.75z"/></g><g><rect width="9" height="3" x="55.5" y="65.5" fill="#fff"/><path fill="#472b29" d="M64.5,69h-9c-0.276,0-0.5-0.224-0.5-0.5v-3c0-0.276,0.224-0.5,0.5-0.5h9c0.276,0,0.5,0.224,0.5,0.5 v3C65,68.776,64.776,69,64.5,69z M56,68h8v-2h-8V68z"/></g><g><path fill="#fff" d="M51,51.5h-1c-3.5,0-6.5,2.119-6.5,3.5v2.5h14V55C57.5,53.619,54.5,51.5,51,51.5z"/><path fill="#472b29" d="M57.75,57.75h-14.5V55c0-1.638,3.273-3.75,6.75-3.75h1c3.477,0,6.75,2.112,6.75,3.75V57.75z M43.75,57.25h13.5V55c0-1.225-2.921-3.25-6.25-3.25h-1c-3.329,0-6.25,2.025-6.25,3.25V57.25z"/></g><g><circle cx="50.5" cy="46.5" r="3" fill="#fff"/><path fill="#472b29" d="M50.5,49.75c-1.792,0-3.25-1.458-3.25-3.25s1.458-3.25,3.25-3.25s3.25,1.458,3.25,3.25 S52.292,49.75,50.5,49.75z M50.5,43.75c-1.517,0-2.75,1.233-2.75,2.75s1.233,2.75,2.75,2.75s2.75-1.233,2.75-2.75 S52.017,43.75,50.5,43.75z"/></g></svg>