<?xml version="1.0" encoding="utf-8"?>
<!-- Generator: Adobe Illustrator 15.1.0, SVG Export Plug-In . SVG Version: 6.00 Build 0)  -->
<!DOCTYPE svg PUBLIC "-//W3C//DTD SVG 1.1//EN" "http://www.w3.org/Graphics/SVG/1.1/DTD/svg11.dtd">
<svg version="1.1" id="レイヤー_1" xmlns="http://www.w3.org/2000/svg" xmlns:xlink="http://www.w3.org/1999/xlink" x="0px"
	 y="0px" width="336.775px" height="43.604px" viewBox="0 0 336.775 43.604" enable-background="new 0 0 336.775 43.604"
	 xml:space="preserve">
<polygon fill="#995854" points="-38.096,483.417 -38.096,485.333 -40,485.927 -38.096,486.521 -38.096,488.438 -36.922,486.888 
	-35.019,487.481 -36.195,485.927 -35.019,484.376 -36.922,484.97 "/>
<polygon fill="#995854" points="-36.691,476.644 -36.691,476.644 -37.188,478.497 -39.178,478.575 -37.496,479.644 -37.993,481.497 
	-36.457,480.3 -34.773,481.366 -35.504,479.562 -33.966,478.368 -35.958,478.448 "/>
<polygon fill="#995854" points="-33.043,470.882 -33.043,470.882 -34.154,472.446 -36.048,471.831 -34.839,473.415 -35.951,474.979 
	-34.092,474.392 -32.883,475.978 -32.944,474.03 -31.088,473.444 -32.982,472.827 "/>
<polygon fill="#995854" points="-27.423,466.954 -27.423,466.954 -29.058,467.958 -30.559,466.649 -30.067,468.579 -31.7,469.587 
	-31.7,469.587 -29.763,469.774 -29.27,471.704 -28.564,469.89 -26.628,470.077 -28.129,468.769 "/>
<polygon fill="#995854" points="-37.79,490.39 -37.79,490.39 -37.174,492.208 -38.786,493.378 -36.793,493.329 -36.178,495.147 
	-35.563,493.3 -33.571,493.253 -35.183,492.159 -34.567,490.312 -36.178,491.483 "/>
<polygon fill="#995854" points="-35.341,496.722 -35.341,496.722 -34.13,498.21 -35.231,499.87 -33.381,499.13 -32.171,500.618 
	-32.238,498.671 -30.39,497.931 -32.28,497.472 -32.348,495.522 -33.449,497.185 "/>
<polygon fill="#995854" points="-30.812,501.753 -30.812,501.753 -29.109,502.642 -29.461,504.601 -28.058,503.188 -26.355,504.075 
	-27.19,502.315 -25.787,500.901 -27.706,501.228 -28.539,499.468 -28.891,501.427 "/>
<polygon fill="#995854" points="-19.263,504.591 -21.181,504.591 -21.775,506.495 -22.367,504.591 -24.285,504.591 -22.733,503.417 
	-23.325,501.515 -21.775,502.69 -20.222,501.515 -20.815,503.417 "/>
<polygon fill="#995854" points="-5.452,483.417 -5.452,485.333 -3.549,485.927 -5.452,486.521 -5.452,488.438 -6.627,486.888 
	-8.529,487.481 -7.353,485.927 -8.529,484.376 -6.627,484.97 "/>
<polygon fill="#995854" points="-6.858,476.644 -6.858,476.644 -6.361,478.497 -4.371,478.575 -6.052,479.644 -5.555,481.497 
	-7.091,480.3 -8.775,481.366 -8.043,479.562 -9.582,478.368 -7.589,478.448 "/>
<polygon fill="#995854" points="-10.504,470.882 -10.504,470.882 -9.394,472.446 -7.5,471.831 -8.708,473.415 -7.598,474.979 
	-9.455,474.392 -10.666,475.978 -10.603,474.03 -12.459,473.444 -10.566,472.827 "/>
<polygon fill="#995854" points="-16.125,466.954 -16.125,466.954 -14.49,467.958 -12.989,466.649 -13.482,468.579 -11.848,469.587 
	-11.848,469.587 -13.786,469.774 -14.277,471.704 -14.983,469.89 -16.921,470.077 -15.419,468.769 "/>
<polygon fill="#995854" points="-5.758,490.39 -5.758,490.39 -6.373,492.208 -4.762,493.378 -6.753,493.329 -7.369,495.147 
	-7.985,493.3 -9.976,493.253 -8.364,492.159 -8.983,490.312 -7.37,491.483 "/>
<polygon fill="#995854" points="-8.207,496.722 -8.207,496.722 -9.417,498.21 -8.316,499.87 -10.165,499.13 -11.376,500.618 
	-11.31,498.671 -13.16,497.931 -11.268,497.472 -11.2,495.522 -10.099,497.185 "/>
<polygon fill="#995854" points="-12.736,501.753 -12.736,501.753 -14.439,502.642 -14.086,504.601 -15.489,503.188 -17.192,504.075 
	-16.357,502.315 -17.762,500.901 -15.843,501.228 -15.009,499.468 -14.656,501.427 "/>
<polygon fill="#995854" points="-18.034,465.72 -20.891,465.72 -21.775,462.89 -22.658,465.72 -25.515,465.72 -23.203,467.472 
	-24.085,470.306 -21.775,468.556 -19.46,470.306 -20.345,467.472 "/>
<path fill-rule="evenodd" clip-rule="evenodd" fill="#995854" d="M-27.825,474.468v9.525h5.358v-9.521L-27.825,474.468z
	 M-26.512,475.735h2.743v2.855h-2.743V475.735z M-26.519,479.866h2.726v2.861h-2.726V479.866z M-15.693,474.468v10.939h-1.296
	v-3.004h-3.413c0,0,0.014,0.064,0,0.424c-0.011,0.357-0.087,0.936-0.307,1.424c-0.22,0.486-0.783,1.076-0.783,1.076l-0.834-1
	c0,0,0.5-0.564,0.566-0.859c0.049-0.23,0.063-1.168,0.063-1.168v-7.832H-15.693z M-20.362,475.749h3.36v2.059h-3.36V475.749z
	 M-20.35,479.081h3.348v2.051h-3.348V479.081z M-25.617,485.849h7.695v5.105h-3.188v0.719h4.107v-2.791h1.315v4.027h-5.422v0.723
	h4.436v1.24h-4.436v0.717h5.422v1.238h-12.18v-1.238h5.441v-0.717h-4.439v-1.24h4.437v-0.719h-5.42v-4.023h1.32v2.785h4.1v-0.723
	h-3.188V485.849z M-19.232,487.79h-5.076v-0.695h5.076V487.79z M-19.235,489.716h-5.074v-0.689h5.074V489.716z"/>
<path d="M15.281,497.075h-1.169c-0.059,0-0.114,0.031-0.139,0.072l-3.398,4.84c-0.008,0.016-0.023,0.016-0.035,0.016
	c-0.01,0-0.028,0-0.041-0.016l-3.307-4.84c-0.03-0.041-0.087-0.072-0.138-0.072H5.691c-0.056,0-0.096,0.037-0.096,0.088v6.666
	c0,0.051,0.04,0.096,0.096,0.096h1.255c0.05,0,0.092-0.045,0.092-0.096v-3.756c0.028-0.008,2.534,3.783,2.534,3.783
	c0.032,0.031,0.097,0.068,0.141,0.068h0.899c0.05,0,0.11-0.027,0.14-0.068l2.708-3.797c0.02-0.012,0.021-0.008,0.021,0.014v3.756
	c0,0.051,0.042,0.096,0.098,0.096h1.702c0.054,0,0.089-0.045,0.089-0.096v-6.666C15.37,497.112,15.334,497.075,15.281,497.075"/>
<path d="M24.488,502.894h-3.574c-0.041,0-0.067-0.037-0.067-0.068v-1.781c0-0.033,0.026-0.066,0.067-0.066h2.551
	c0.049,0,0.09-0.045,0.09-0.094v-0.879c0-0.051-0.041-0.09-0.09-0.09h-2.551c-0.041,0-0.067-0.035-0.067-0.072v-1.674
	c0-0.035,0.026-0.072,0.067-0.072h3.33c0.047,0,0.09-0.041,0.09-0.086v-0.846c0-0.053-0.043-0.09-0.09-0.09h-5.383
	c-0.047,0-0.086,0.037-0.086,0.09v6.666c0,0.049,0.039,0.094,0.086,0.094h5.627c0.056,0,0.088-0.045,0.088-0.094v-0.842
	C24.576,502.935,24.544,502.894,24.488,502.894"/>
<path d="M30.111,497.075h-1.892c-0.052,0-0.087,0.037-0.087,0.088v6.666c0,0.051,0.035,0.096,0.087,0.096h1.892
	c0.046,0,0.084-0.045,0.084-0.096v-6.666C30.195,497.112,30.157,497.075,30.111,497.075"/>
<path d="M37.646,499.798c-0.868-0.236-1.41-0.424-1.584-0.545c-0.184-0.115-0.27-0.295-0.27-0.529c0-0.201,0.118-0.354,0.363-0.48
	c0.242-0.131,0.623-0.193,1.17-0.193l1.09,0.072l0.948,0.16c0.023,0.002,0.049,0,0.07-0.016c0.019-0.006,0.025-0.035,0.025-0.057
	v-0.965c0,0-0.057-0.012-0.128-0.027c-0.098-0.018-0.213-0.041-0.359-0.07c-0.201-0.041-0.38-0.072-0.38-0.072
	c-0.408-0.061-0.862-0.086-1.377-0.086c-1.048,0-1.888,0.184-2.48,0.543c-0.611,0.361-0.902,0.807-0.902,1.328
	c0,0.557,0.187,0.996,0.563,1.316c0.369,0.326,0.899,0.586,1.572,0.779c0.846,0.256,1.358,0.461,1.535,0.615
	c0.181,0.152,0.264,0.324,0.264,0.516c0,0.316-0.121,0.535-0.366,0.658c-0.248,0.137-0.698,0.199-1.375,0.199
	c-0.46,0-0.946-0.037-1.442-0.129l-0.995-0.271c-0.027-0.008-0.053-0.008-0.069,0.008c-0.017,0.008-0.021,0.039-0.021,0.059v1.092
	c0.3,0.094,0.677,0.174,1.114,0.229c0.467,0.045,1.018,0.08,1.669,0.08c1.139,0,2.036-0.172,2.677-0.512
	c0.636-0.348,0.973-0.889,0.973-1.613c0-0.469-0.18-0.893-0.53-1.234C39.058,500.31,38.482,500.036,37.646,499.798"/>
<path d="M48.755,502.894h-3.57c-0.038,0-0.067-0.037-0.067-0.068v-1.781c0-0.033,0.029-0.066,0.067-0.066h2.552
	c0.051,0,0.093-0.045,0.093-0.094v-0.879c0-0.051-0.042-0.09-0.093-0.09h-2.552c-0.044,0-0.067-0.035-0.067-0.072v-1.674
	c0-0.031,0.029-0.072,0.067-0.072h3.328c0.045,0,0.089-0.041,0.089-0.086v-0.846c0-0.053-0.044-0.09-0.089-0.09h-5.374
	c-0.053,0-0.09,0.037-0.09,0.09v6.666c0,0.049,0.037,0.094,0.09,0.094h5.616c0.054,0,0.094-0.045,0.094-0.094v-0.842
	C48.849,502.935,48.809,502.894,48.755,502.894"/>
<path d="M65.138,497.091v-0.01v-0.027h-0.003c-0.018-0.053-0.069-0.094-0.125-0.094h-1.734c-0.061,0-0.106,0.041-0.122,0.094h-0.008
	v0.027c0,0.004-0.002,0.008-0.002,0.008v2.654c0,0.004,0.002,0.006,0.002,0.01v2.461c0,0.244-0.09,0.42-0.263,0.523
	c-0.177,0.105-0.385,0.156-0.631,0.156c-0.247,0-0.5-0.023-0.752-0.068c-0.252-0.043-0.381-0.082-0.537-0.127
	c0,0-0.012-0.006-0.015-0.006c-0.053,0-0.093,0.041-0.093,0.09v0.895c0,0.045,0.029,0.076,0.071,0.084
	c0.174,0.076,0.392,0.133,0.673,0.18c0.286,0.043,0.665,0.064,1.144,0.064c0.802,0,1.406-0.154,1.799-0.48
	c0.401-0.32,0.596-0.715,0.596-1.178v-2.598v-0.006V497.091z"/>
<path d="M84.61,497.056h-1.28c-0.045,0-0.08,0.035-0.08,0.076v0.637l0.018,0.832v2.322c-0.008,0.029-0.014,0.086-0.055,0.086
	c-0.021,0-0.041-0.012-0.045-0.02l-3.931-3.641l-0.244-0.24c-0.072-0.055-0.117-0.055-0.157-0.055H78.02
	c-0.045,0-0.079,0.035-0.079,0.072v6.783c0,0.037,0.034,0.074,0.079,0.074h1.272c0.043,0,0.081-0.047,0.081-0.09v-0.109v-4.025
	c0.004-0.01,0.006-0.02,0.025-0.033c0.023-0.014,0.05-0.004,0.074,0.016l4.067,3.77l0.438,0.406c0.05,0.055,0.103,0.066,0.143,0.066
	h0.49c0.042,0,0.073-0.037,0.073-0.074v-6.777C84.683,497.091,84.652,497.056,84.61,497.056"/>
<path d="M90.152,497.075h-1.889c-0.056,0-0.09,0.037-0.09,0.088v6.666c0,0.051,0.034,0.096,0.09,0.096h1.889
	c0.045,0,0.09-0.045,0.09-0.096v-6.666C90.242,497.112,90.197,497.075,90.152,497.075"/>
<path d="M100.592,500.763c0,1.066-0.327,1.873-0.976,2.436c-0.648,0.557-1.5,0.84-2.564,0.84c-1.055,0-1.911-0.283-2.563-0.84
	c-0.655-0.563-0.981-1.361-0.981-2.412v-0.385c0-0.975,0.306-1.771,0.913-2.393c0.61-0.619,1.498-0.924,2.677-0.924
	c1.143,0,2.023,0.314,2.61,0.938c0.592,0.623,0.884,1.416,0.884,2.379V500.763z M98.635,500.675v-0.184
	c0-0.828-0.097-1.449-0.277-1.848c-0.185-0.404-0.621-0.609-1.306-0.609c-0.642,0-1.062,0.182-1.272,0.541
	c-0.208,0.357-0.309,0.996-0.309,1.916v0.164c0,0.924,0.091,1.564,0.282,1.91c0.184,0.344,0.614,0.512,1.299,0.512
	c0.552,0,0.957-0.18,1.207-0.553C98.507,502.147,98.635,501.538,98.635,500.675"/>
<path d="M109.528,503.755c0-1.086-0.171-1.943-0.521-2.494c-0.346-0.549-0.865-0.902-1.548-1.068c0.6-0.037,1.049-0.174,1.35-0.41
	c0.302-0.232,0.451-0.541,0.451-0.93v-0.367c0-0.408-0.174-0.762-0.52-1.043c-0.348-0.279-0.941-0.422-1.77-0.422h-1.509h-0.014
	h-1.822c-0.046,0-0.075,0.033-0.075,0.074v6.684c0,0.043,0.029,0.072,0.075,0.072h1.822c0.039,0,0.074-0.029,0.074-0.072v-3.029
	h0.463c0.542,0,0.942,0.236,1.195,0.709c0.248,0.471,0.379,1.25,0.396,2.264v0.004v0.049c0,0.041,0.029,0.076,0.072,0.076h1.808
	c0.039,0,0.073-0.035,0.073-0.076V503.755z M107.35,498.991c0,0.268-0.101,0.465-0.302,0.6c-0.196,0.135-0.534,0.199-0.995,0.199
	h-0.532v-1.807h0.643c0.387,0,0.688,0.059,0.884,0.186c0.201,0.127,0.302,0.342,0.302,0.637V498.991z"/>
<path d="M54.335,497.054H52.45c-0.056,0-0.095,0.037-0.095,0.088v6.686c0,0.051,0.039,0.09,0.095,0.09h1.885
	c0.055,0,0.097-0.039,0.097-0.09v-6.686C54.433,497.091,54.391,497.054,54.335,497.054"/>
<path d="M74.73,497.12h-1.384c-0.039,0-0.091,0.035-0.091,0.086v4.719c0,0.416-0.122,0.721-0.368,0.891
	c-0.244,0.154-0.629,0.244-1.148,0.244c-0.551,0-0.941-0.102-1.166-0.279c-0.223-0.178-0.321-0.74-0.321-0.752l-0.019-0.162v-4.66
	c0-0.051-0.041-0.086-0.092-0.086h-1.906c-0.041,0-0.083,0.035-0.083,0.086v4.561c0,0.77,0.264,1.361,0.795,1.75
	c0.514,0.393,1.385,0.596,2.588,0.596c1.117,0,1.945-0.182,2.483-0.551c0.528-0.365,0.777-1.449,0.786-1.455l0.015-0.168v-4.732
	C74.819,497.155,74.78,497.12,74.73,497.12"/>
<path d="M153.314,499.761c-0.881-0.236-1.412-0.426-1.595-0.545c-0.184-0.117-0.272-0.295-0.272-0.531
	c0-0.199,0.121-0.355,0.363-0.484c0.247-0.131,0.623-0.195,1.182-0.195l1.089,0.072l0.958,0.16c0.028,0.004,0.051,0,0.074-0.014
	c0.013-0.002,0.025-0.039,0.025-0.059v-0.967c0,0-0.058-0.014-0.133-0.033c-0.1-0.018-0.212-0.041-0.358-0.07
	c-0.2-0.039-0.384-0.072-0.384-0.072c-0.409-0.059-0.868-0.086-1.379-0.086c-1.065,0-1.904,0.184-2.502,0.543
	c-0.613,0.367-0.903,0.813-0.903,1.34c0,0.559,0.188,1.002,0.563,1.322c0.37,0.326,0.907,0.588,1.582,0.787
	c0.85,0.254,1.367,0.463,1.547,0.621c0.174,0.152,0.264,0.322,0.264,0.518c0,0.314-0.125,0.535-0.369,0.66
	c-0.252,0.141-0.704,0.201-1.378,0.201c-0.467,0-0.952-0.039-1.454-0.133l-1.003-0.27c-0.026-0.01-0.049-0.01-0.069,0.004
	c-0.019,0.01-0.022,0.041-0.022,0.061v1.096c0.306,0.098,0.687,0.176,1.118,0.227c0.479,0.055,1.029,0.086,1.679,0.086
	c1.149,0,2.051-0.172,2.689-0.514c0.649-0.346,0.983-0.895,0.983-1.621c0-0.473-0.181-0.896-0.528-1.248
	C154.736,500.274,154.153,500.003,153.314,499.761"/>
<path d="M164.099,502.876h-3.593c-0.043,0-0.072-0.037-0.072-0.068v-1.791c0-0.037,0.029-0.068,0.072-0.068h2.567
	c0.048,0,0.09-0.041,0.09-0.094v-0.885c0-0.047-0.042-0.09-0.09-0.09h-2.567c-0.048,0-0.072-0.033-0.072-0.074v-1.678
	c0-0.033,0.029-0.072,0.072-0.072h3.339c0.048,0,0.099-0.043,0.099-0.088v-0.854c0-0.051-0.051-0.092-0.099-0.092h-5.399
	c-0.052,0-0.088,0.041-0.088,0.092v6.707c0,0.045,0.036,0.088,0.088,0.088h5.653c0.05,0,0.087-0.043,0.087-0.088v-0.852
	C164.186,502.915,164.149,502.876,164.099,502.876"/>
<path d="M173.546,496.97h-1.295c-0.044,0-0.078,0.031-0.078,0.078v0.637l0.02,0.836v2.342c-0.008,0.033-0.016,0.08-0.054,0.08
	c-0.023,0-0.041-0.008-0.052-0.014l-3.957-3.66l-0.242-0.252c-0.076-0.053-0.113-0.051-0.156-0.051h-0.828
	c-0.04,0-0.077,0.035-0.077,0.076v6.826c0,0.041,0.037,0.076,0.077,0.076h1.287c0.041,0,0.08-0.051,0.08-0.094v-0.107v-4.049
	c0.004-0.014,0.01-0.025,0.025-0.035c0.022-0.02,0.049-0.006,0.075,0.01l4.09,3.799l0.442,0.412
	c0.049,0.051,0.103,0.064,0.143,0.064h0.5c0.038,0,0.073-0.035,0.073-0.076v-6.82C173.62,497.001,173.584,496.97,173.546,496.97"/>
<path d="M179.059,496.962h-1.896c-0.059,0-0.097,0.039-0.097,0.092v6.734c0,0.041,0.038,0.09,0.097,0.09h1.896
	c0.056,0,0.092-0.049,0.092-0.09v-6.734C179.151,497.001,179.115,496.962,179.059,496.962"/>
<path d="M189.642,500.597c0,1.072-0.33,1.895-0.979,2.455c-0.657,0.566-1.519,0.842-2.592,0.842c-1.061,0-1.922-0.275-2.578-0.842
	c-0.659-0.561-0.988-1.375-0.988-2.43v-0.389c0-0.98,0.305-1.787,0.923-2.408c0.616-0.623,1.512-0.936,2.691-0.936
	c1.158,0,2.036,0.318,2.631,0.949c0.598,0.629,0.893,1.432,0.893,2.395V500.597z M187.664,500.509v-0.186
	c0-0.836-0.091-1.457-0.278-1.861c-0.182-0.406-0.623-0.607-1.314-0.607c-0.642,0-1.07,0.178-1.274,0.541
	c-0.216,0.359-0.313,1.004-0.313,1.928v0.168c0,0.934,0.088,1.574,0.276,1.918c0.191,0.354,0.623,0.52,1.311,0.52
	c0.562,0,0.965-0.184,1.223-0.559C187.54,501.995,187.664,501.378,187.664,500.509"/>
<path d="M198.607,503.687c0-1.092-0.17-1.955-0.518-2.508c-0.347-0.553-0.869-0.914-1.566-1.07c0.61-0.043,1.061-0.184,1.365-0.418
	c0.299-0.238,0.448-0.551,0.448-0.938v-0.373c0-0.412-0.172-0.764-0.526-1.047c-0.35-0.279-0.939-0.422-1.774-0.422h-1.523
	c-0.004,0-0.006-0.004-0.013-0.004h-1.84c-0.038,0-0.069,0.033-0.069,0.074v6.729c0,0.043,0.031,0.078,0.069,0.078h1.84
	c0.043,0,0.074-0.035,0.074-0.078v-3.047h0.467c0.55,0,0.949,0.238,1.2,0.717c0.253,0.471,0.387,1.252,0.405,2.271v0.012v0.043
	c0,0.043,0.031,0.076,0.069,0.076h1.818c0.044,0,0.073-0.033,0.073-0.076V503.687z M196.416,498.892
	c0,0.271-0.099,0.471-0.301,0.604c-0.204,0.137-0.533,0.201-1.003,0.201h-0.538v-1.82h0.646c0.397,0,0.691,0.063,0.896,0.189
	c0.202,0.129,0.301,0.344,0.301,0.637V498.892z"/>
<path d="M212.571,496.94h-1.898c-0.057,0-0.099,0.039-0.099,0.09v2.893h-2.311v-2.893c0-0.051-0.042-0.09-0.095-0.09h-1.897
	c-0.054,0-0.096,0.039-0.096,0.09v6.734c0,0.045,0.042,0.092,0.096,0.092h1.897c0.053,0,0.095-0.047,0.095-0.092v-2.742h2.311v2.742
	c0,0.045,0.042,0.092,0.099,0.092h1.898c0.055,0,0.096-0.047,0.096-0.092v-6.734C212.667,496.979,212.625,496.94,212.571,496.94"/>
<path d="M237.976,497.048h-1.898c-0.059,0-0.095,0.035-0.095,0.086v2.893h-2.319v-2.893c0-0.051-0.037-0.086-0.092-0.086h-1.893
	c-0.062,0-0.103,0.035-0.103,0.086v6.732c0,0.045,0.041,0.09,0.103,0.09h1.893c0.055,0,0.092-0.045,0.092-0.09v-2.74h2.319v2.74
	c0,0.045,0.036,0.09,0.095,0.09h1.898c0.053,0,0.096-0.045,0.096-0.09v-6.732C238.072,497.083,238.029,497.048,237.976,497.048"/>
<path d="M228.622,502.468v-1.908v-0.002v-0.309c0-0.045-0.038-0.078-0.083-0.078h-2.89c-0.043,0-0.077,0.033-0.077,0.078v0.775
	c0,0.047,0.034,0.084,0.077,0.084h1.221c0.012,0,0.035,0,0.052,0.012c0.016,0.018,0.021,0.029,0.021,0.064v0.014v1.318
	c-0.079,0.113-0.26,0.217-0.524,0.303c-0.266,0.086-0.565,0.127-0.89,0.127c-0.596,0-1.063-0.172-1.399-0.527
	c-0.338-0.352-0.504-0.988-0.504-1.906v-0.1c0-0.883,0.217-1.514,0.646-1.893c0.436-0.381,1.012-0.57,1.727-0.57
	c0.402,0,0.762,0.045,1.07,0.127c0.253,0.068,0.414,0.111,0.58,0.168v0.002c0,0,0.042,0.014,0.091,0.029
	c0,0,0.004,0.002,0.009,0.004c0.004,0.002,0.014,0.004,0.017,0.004c0.061,0.018,0.071-0.037,0.071-0.037s0.003-0.986,0-1.018
	c-0.011-0.031-0.027-0.049-0.04-0.057c-0.163-0.07-0.376-0.123-0.716-0.193c-0.341-0.072-0.763-0.107-1.264-0.107
	c-1.331,0-2.365,0.313-3.101,0.934c-0.738,0.627-1.105,1.434-1.105,2.42v0.375c0,1.111,0.335,1.955,1.003,2.539
	c0.663,0.576,1.583,0.865,2.749,0.865c0.847,0,1.529-0.107,2.05-0.324c0.35-0.141,0.608-0.285,0.832-0.463
	c0.015-0.01,0.03-0.02,0.051-0.041c0.084-0.072,0.161-0.146,0.23-0.23v-0.004c0.013-0.008,0.02-0.018,0.032-0.027
	c0.065-0.074,0.065-0.162,0.065-0.162l-0.002-0.287V502.468z"/>
<path d="M218.232,496.948h-1.905c-0.053,0-0.086,0.041-0.086,0.096v6.711c0,0.047,0.033,0.096,0.086,0.096h1.905
	c0.045,0,0.09-0.049,0.09-0.096v-6.711C218.322,496.989,218.277,496.948,218.232,496.948"/>
<path d="M279.045,500.597c0,1.072-0.329,1.895-0.981,2.455c-0.655,0.566-1.51,0.842-2.59,0.842c-1.063,0-1.92-0.275-2.574-0.842
	c-0.662-0.561-0.988-1.375-0.988-2.43v-0.389c0-0.98,0.307-1.787,0.919-2.408c0.616-0.623,1.51-0.936,2.694-0.936
	c1.158,0,2.033,0.318,2.632,0.949c0.593,0.629,0.889,1.432,0.889,2.395V500.597z M277.073,500.509v-0.186
	c0-0.836-0.094-1.457-0.279-1.861c-0.184-0.406-0.624-0.607-1.319-0.607c-0.642,0-1.066,0.178-1.279,0.541
	c-0.206,0.359-0.311,1.004-0.311,1.928v0.168c0,0.934,0.096,1.574,0.288,1.918c0.183,0.354,0.622,0.52,1.302,0.52
	c0.564,0,0.969-0.184,1.221-0.559C276.946,501.995,277.073,501.378,277.073,500.509"/>
<path d="M288.243,500.597c0,1.072-0.333,1.895-0.983,2.455c-0.652,0.566-1.513,0.842-2.592,0.842c-1.061,0-1.918-0.275-2.578-0.842
	c-0.652-0.561-0.986-1.375-0.986-2.43v-0.389c0-0.98,0.306-1.787,0.921-2.408c0.614-0.623,1.509-0.936,2.692-0.936
	c1.162,0,2.041,0.318,2.639,0.949c0.592,0.629,0.888,1.432,0.888,2.395V500.597z M286.264,500.509v-0.186
	c0-0.836-0.091-1.457-0.278-1.861c-0.182-0.406-0.63-0.607-1.318-0.607c-0.645,0-1.064,0.178-1.274,0.541
	c-0.213,0.359-0.313,1.004-0.313,1.928v0.168c0,0.934,0.093,1.574,0.287,1.918c0.184,0.354,0.615,0.52,1.3,0.52
	c0.564,0,0.968-0.184,1.22-0.559C286.136,501.995,286.264,501.378,286.264,500.509"/>
<path d="M250.466,503.601c-0.023,0.004-0.043,0.02-0.065,0.029C250.423,503.62,250.443,503.604,250.466,503.601 M245.473,502.63
	c0.179,0.047,0.443,0.121,0.626,0.166C245.855,502.743,245.629,502.677,245.473,502.63 M249.859,498.046
	c-0.146-0.014-0.341-0.025-0.497-0.035C249.539,498.021,249.695,498.026,249.859,498.046 M249.375,499.776
	c-0.885-0.242-1.424-0.428-1.61-0.549c-0.179-0.119-0.267-0.299-0.267-0.539c0-0.197,0.117-0.35,0.365-0.479
	c0.245-0.133,0.627-0.199,1.183-0.199l1.103,0.072l0.962,0.164c0.02,0,0.045,0,0.063-0.016c0.019-0.006,0.029-0.037,0.029-0.059
	V497.2c0,0-0.06-0.012-0.132-0.027c-0.1-0.021-0.216-0.047-0.363-0.072c-0.196-0.041-0.381-0.076-0.381-0.076
	c-0.413-0.057-0.876-0.088-1.389-0.088c-1.07,0-1.912,0.184-2.509,0.547c-0.615,0.371-0.912,0.818-0.912,1.344
	c0,0.563,0.188,1.012,0.567,1.332c0.372,0.33,0.91,0.59,1.592,0.791c0.853,0.252,1.369,0.461,1.549,0.621
	c0.179,0.15,0.27,0.324,0.27,0.52c0,0.314-0.127,0.539-0.375,0.666c-0.244,0.137-0.701,0.201-1.385,0.201
	c-0.469,0-0.957-0.043-1.46-0.137l-1.002-0.27c-0.026-0.012-0.056-0.012-0.073,0.004c-0.021,0.012-0.022,0.041-0.022,0.063v1.1
	c0.306,0.1,0.686,0.172,1.127,0.232c0.474,0.049,1.026,0.084,1.69,0.084c1.143,0,2.053-0.172,2.699-0.518
	c0.645-0.352,0.982-0.898,0.982-1.627c0-0.479-0.18-0.9-0.533-1.25C250.802,500.296,250.222,500.019,249.375,499.776"/>
<path d="M256.545,498.552c0.404-0.436,0.958-0.652,1.674-0.652c0.387,0,0.718,0.025,1,0.076c0.277,0.047,0.399,0.068,0.559,0.131
	c0.011,0.006,0.024,0.014,0.04,0.014c0.043,0,0.071-0.037,0.071-0.076v-0.91c0-0.027-0.015-0.053-0.035-0.066
	c-0.184-0.066-0.395-0.119-0.726-0.164c-0.33-0.041-0.743-0.061-1.23-0.061c-1.153,0-2.101,0.311-2.862,0.938
	c-0.765,0.625-1.143,1.449-1.143,2.484v0.277c0,1.109,0.378,1.949,1.122,2.518c0.753,0.574,1.72,0.857,2.905,0.857
	c0.465,0,0.878-0.031,1.236-0.094c0.351-0.068,0.548-0.113,0.682-0.176c0.032-0.01,0.051-0.033,0.051-0.072v-0.908
	c0-0.041-0.028-0.076-0.071-0.076c-0.011,0-0.022,0.004-0.033,0.008c-0.176,0.057-0.322,0.092-0.628,0.158
	c-0.309,0.07-0.677,0.109-1.118,0.109c-0.646,0-1.164-0.199-1.535-0.594c-0.375-0.393-0.567-0.998-0.567-1.82v-0.096
	C255.936,499.587,256.144,498.985,256.545,498.552"/>
<path d="M269.064,496.94h-1.899c-0.059,0-0.097,0.039-0.097,0.09v2.893h-2.314v-2.893c0-0.051-0.036-0.09-0.096-0.09h-1.892
	c-0.061,0-0.102,0.039-0.102,0.09v6.734c0,0.045,0.041,0.092,0.102,0.092h1.892c0.06,0,0.096-0.047,0.096-0.092v-2.742h2.314v2.742
	c0,0.045,0.038,0.092,0.097,0.092h1.899c0.05,0,0.098-0.047,0.098-0.092v-6.734C269.162,496.979,269.114,496.94,269.064,496.94"/>
<path d="M296.729,502.878h-3.321v-5.816c0-0.025-0.028-0.053-0.053-0.053h-1.939c-0.029,0-0.047,0.027-0.047,0.053v6.818
	c0,0.029,0.018,0.049,0.047,0.049h5.313c0.027,0,0.046-0.02,0.046-0.049v-0.955C296.775,502.899,296.756,502.878,296.729,502.878"/>
<path d="M121.318,497.124l3.152,6.879h-1.687l-0.842-1.84h-2.613l-0.884,1.84h-1.126l3.286-6.879H121.318z M119.634,501.536h2.028
	l-0.998-2.176L119.634,501.536z"/>
<path d="M135.224,497.272h2.441c0.627,0,1.204,0.072,1.729,0.219c0.528,0.146,0.979,0.359,1.36,0.643
	c0.379,0.283,0.675,0.627,0.885,1.037c0.213,0.41,0.317,0.879,0.317,1.404c0,0.473-0.089,0.918-0.266,1.336
	c-0.179,0.416-0.439,0.781-0.782,1.09c-0.345,0.309-0.767,0.553-1.266,0.732c-0.5,0.18-1.073,0.27-1.719,0.27h-2.701V497.272z
	 M136.871,503.312h0.881c0.324,0,0.631-0.059,0.915-0.178c0.287-0.121,0.537-0.297,0.754-0.527c0.213-0.232,0.383-0.518,0.508-0.855
	c0.125-0.336,0.186-0.725,0.186-1.162c0-0.377-0.059-0.727-0.175-1.047c-0.115-0.322-0.279-0.604-0.489-0.84
	c-0.21-0.234-0.459-0.42-0.749-0.551c-0.289-0.133-0.604-0.199-0.949-0.199h-0.881V503.312z"/>
<path d="M132.93,497.228h-1.281c-0.045,0-0.08,0.033-0.08,0.074v0.637l0.019,0.832v2.322c-0.007,0.031-0.014,0.086-0.056,0.086
	c-0.021,0-0.04-0.01-0.045-0.02l-3.931-3.639l-0.244-0.242c-0.072-0.055-0.117-0.055-0.155-0.055h-0.817
	c-0.045,0-0.079,0.035-0.079,0.074v6.779c0,0.039,0.034,0.076,0.079,0.076h1.272c0.043,0,0.081-0.047,0.081-0.09v-0.111v-4.021
	c0.003-0.01,0.006-0.021,0.023-0.033c0.023-0.016,0.053-0.006,0.075,0.014l4.068,3.77l0.437,0.408
	c0.05,0.053,0.103,0.064,0.144,0.064h0.49c0.041,0,0.072-0.037,0.072-0.076v-6.775C133.002,497.261,132.971,497.228,132.93,497.228"
	/>
<path d="M21.353,475.185h4.645v2.633H21.35c0-0.047,0.003-0.092,0.003-0.143V475.185 M21.353,469.532h4.645v2.609h-4.645V469.532z
	 M17.87,477.646c0,6.906-2.891,8.482-5.515,10.131l2.516,2.391c3.456-1.957,5.516-5.256,6.21-9.279h4.917v4.885
	c0,0.715-0.235,0.979-0.868,0.979h-2.221l1.154,3.322h1.55c2.709,0,3.868-1.109,3.868-3.709v-19.881H17.87V477.646z"/>
<path d="M12.648,472.755H9.355v-3.223h3.293V472.755z M12.648,479.198H9.355v-3.4h3.293V479.198z M5.833,482.21h10.169v-15.729
	H5.833V482.21z"/>
<path d="M48.346,478.751h-3.273c0.203-0.287,0.38-0.557,0.536-0.797l-1.685-1.09h4.422V478.751 M43.824,472.79h12.174v1.367H43.824
	V472.79z M43.824,469.104h12.174v1.354H43.824V469.104z M52.149,485.706h6.169v-2.74h-6.169v-1.32h7.858v-2.895h-7.858v-1.887h7.483
	v-10.381H40.213v10.381h1.933c-1.271,1.861-2.978,4.164-5.013,5.852c0,0.002,2.636,2.178,2.636,2.178
	c0.831-0.633,1.99-1.9,3.097-3.248c1.99-0.004,5.322-0.004,5.48,0v1.32h-6.001v2.74h6.001v1.42H38.65v2.947h22.867v-2.947h-9.368
	V485.706z"/>
<path d="M88.844,481.688h-6.05v9.334h-3.403v-9.334h-5.709v1.541h-3.403v-12.881h9.112v-4.613h3.403v4.613h9.451v12.547h-3.401
	V481.688z M79.391,473.444h-5.709v5.063h5.709V473.444z M88.844,473.444h-6.05v5.063h6.05V473.444z"/>
<path d="M185.192,464.892h3.96v2.076h10.315v2.641h-24.369v-2.641h10.094V464.892z M183.787,477.735h15.036v6.352
	c0.11,3.166-0.134,5.041-0.729,5.625c-0.471,0.635-1.837,1.072-4.105,1.314c-0.037-0.916-0.364-1.945-0.982-3.092h1.517
	c0.54-0.033,0.767-0.324,0.674-0.869v-6.686h-16.247v10.197h-3.314v-12.842H183.787z M179.259,470.481h15.488v6.271h-15.488V470.481
	z M180.921,481.364h12.084v6.459h-8.912v0.789h-3.172V481.364z M191.235,472.899h-8.463v1.438h8.463V472.899z M184.093,485.407
	h5.708v-1.631h-5.708V485.407z"/>
<path d="M210.092,464.892l3.318,0.871c-0.264,0.449-0.523,0.891-0.788,1.32h5.51v2.391c0.932-1.311,1.741-2.84,2.413-4.582
	l3.176,0.758c-0.225,0.506-0.445,0.984-0.674,1.434h8.35v2.643h-4.58c0.259,0.412,0.515,0.844,0.759,1.293l-3.092,1.012
	c-0.374-0.805-0.794-1.572-1.267-2.305h-1.57c-0.435,0.732-0.867,1.389-1.296,1.963h0.279v1.436h8.575v2.727h-8.575v1.434h10.989
	v2.643h-5.059v1.658h4.188v2.615h-4.188v3.734c0,1.221-0.366,1.979-1.096,2.281c-0.597,0.316-2.061,0.477-4.384,0.477
	c-0.057-0.844-0.347-1.838-0.868-2.979h3.063V484.2h-9.841c1.37,0.656,2.561,1.424,3.575,2.305l-1.633,2.529
	c-1.331-1.127-2.652-2.068-3.963-2.84l1.401-1.994h-5.14v-2.615h15.6v-1.658h-16.81v-2.643h10.765v-1.434h-7.896v-2.727h7.896
	v-1.436h1.546c-0.484-0.408-1.004-0.775-1.546-1.092c0.244-0.285,0.478-0.576,0.704-0.871h-2.447
	c0.227,0.447,0.438,0.914,0.648,1.404l-3.065,1.01c-0.28-0.842-0.61-1.648-0.982-2.414h-1.151c-1.014,1.404-2.024,2.574-3.035,3.512
	c-0.735-0.842-1.578-1.549-2.534-2.107C207.28,469.46,208.857,467.382,210.092,464.892"/>
<path d="M132.34,470.034h3.43v-4.832h3.293v4.832h2.301v3.203h-2.301v1.768c1.082,1.447,2.291,2.645,3.622,3.602
	c-0.9,0.789-1.527,1.631-1.881,2.529c-0.659-0.506-1.24-1.021-1.741-1.545v10.986h-3.293v-9.668
	c-0.731,1.559-1.507,2.953-2.331,4.189c-0.282-1.387-0.862-2.596-1.742-3.625c0.918-0.992,1.704-2.221,2.361-3.682
	c0.596-1.33,1.131-2.852,1.603-4.555h-3.32V470.034z"/>
<path d="M158.058,487.714c-0.711,0.918-1.227,1.986-1.547,3.201c-1.607-0.617-3.128-1.42-4.549-2.416
	c-0.844-0.523-1.623-1.105-2.336-1.742l-0.027,0.029c-1.856,1.629-4.424,3.074-7.699,4.328c-0.448-1.049-1.068-2.033-1.859-2.949
	c3.303-1.104,5.766-2.383,7.395-3.826c-1.291-1.592-2.411-3.5-3.343-5.732l2.867-1.543c0.655,1.871,1.524,3.512,2.612,4.914
	c0.934-1.311,1.854-2.947,2.756-4.914l2.975,1.879c-1.141,2.193-2.285,4.012-3.423,5.453c0.428,0.357,0.876,0.703,1.342,1.041
	C154.44,486.261,156.054,487.019,158.058,487.714"/>
<path d="M158.594,475.655c-0.995,0.863-1.688,1.771-2.083,2.727c-1.088-0.621-2.04-1.285-2.866-1.994
	c-1.084-0.844-2.067-1.791-2.952-2.84l1.971-1.969h-6.857l2.47,1.773c-1.682,2.172-3.443,3.811-5.282,4.914
	c-0.563-1.01-1.254-1.879-2.079-2.611c0.9-0.449,1.646-0.938,2.249-1.463c0.616-0.541,1.415-1.412,2.389-2.613h-3.543v-3.063h5.816
	v-3.314h3.521v3.314h5.924v3.063h-4.156C154.744,473.228,156.571,474.587,158.594,475.655"/>
<path d="M270.209,470.034h3.432v-4.832h3.289v4.832h2.305v3.203h-2.305v1.768c1.085,1.447,2.293,2.645,3.625,3.602
	c-0.898,0.789-1.528,1.631-1.882,2.529c-0.658-0.506-1.236-1.021-1.743-1.545v10.986h-3.289v-9.668
	c-0.733,1.559-1.509,2.953-2.333,4.189c-0.281-1.387-0.86-2.596-1.744-3.625c0.922-0.992,1.706-2.221,2.367-3.682
	c0.591-1.33,1.13-2.852,1.599-4.555h-3.32V470.034z"/>
<path d="M295.929,487.714c-0.713,0.918-1.228,1.986-1.548,3.201c-1.606-0.617-3.128-1.42-4.546-2.416
	c-0.846-0.523-1.625-1.105-2.338-1.742l-0.029,0.029c-1.854,1.629-4.42,3.074-7.7,4.328c-0.444-1.049-1.066-2.033-1.856-2.949
	c3.3-1.104,5.767-2.383,7.393-3.826c-1.289-1.592-2.409-3.5-3.34-5.732l2.866-1.543c0.651,1.871,1.525,3.512,2.613,4.914
	c0.935-1.311,1.854-2.947,2.755-4.914l2.976,1.879c-1.142,2.193-2.29,4.012-3.426,5.453c0.431,0.357,0.877,0.703,1.343,1.041
	C292.313,486.261,293.923,487.019,295.929,487.714"/>
<path d="M296.463,475.655c-0.992,0.863-1.688,1.771-2.082,2.727c-1.089-0.621-2.039-1.285-2.863-1.994
	c-1.086-0.844-2.068-1.791-2.956-2.84l1.969-1.969h-6.853l2.471,1.773c-1.684,2.172-3.443,3.811-5.281,4.914
	c-0.565-1.01-1.257-1.879-2.083-2.611c0.901-0.449,1.646-0.938,2.25-1.463c0.617-0.541,1.416-1.412,2.388-2.613h-3.541v-3.063h5.813
	v-3.314h3.519v3.314h5.928v3.063h-4.157C292.614,473.228,294.442,474.587,296.463,475.655"/>
<path d="M108.329,470.196c-0.127-1.461-0.505-3.623-0.84-4.857h-3.453c0.388,1.352,0.765,3.518,0.861,4.857H108.329"/>
<path d="M114.083,470.196c-0.124-1.887-0.479-3.764-0.839-4.857h-3.444c0.333,1.141,0.735,3.373,0.851,4.857H114.083"/>
<path d="M119.559,470.993c0.66-1.391,2.094-4.514,2.184-4.836c0.015,0.002-3.465-0.939-3.465-0.939
	c-0.335,0.936-1.795,4.141-2.605,5.775h-14.827v6.635h3.441v-3.633h16.896v3.484h3.499v-6.486H119.559"/>
<path d="M120.037,476.55l-0.896-1.473h-13.376v3.008h7.582c-0.176,0.236-0.426,0.621-0.865,1.006c-0.331,0-1.488-0.004-1.488-0.004
	v1.572h-10.147v3.152h10.147v3.129c0,0.469-0.185,0.707-0.566,0.707c-0.368,0-3.253-0.002-3.253-0.002l1.404,3.17h2.667
	c2.371,0,3.571-0.85,3.571-2.627v-4.377h9.866v-3.152h-9.623C116.634,479.556,118.848,477.638,120.037,476.55"/>
<path d="M246.443,470.196c-0.125-1.461-0.506-3.623-0.843-4.857h-3.45c0.386,1.352,0.767,3.518,0.857,4.857H246.443"/>
<path d="M252.198,470.196c-0.125-1.887-0.481-3.764-0.843-4.857h-3.444c0.33,1.141,0.738,3.373,0.853,4.857H252.198"/>
<path d="M257.672,470.993c0.66-1.391,2.098-4.514,2.18-4.836c0.02,0.002-3.466-0.939-3.466-0.939
	c-0.332,0.936-1.794,4.141-2.602,5.775h-14.826v6.635h3.44v-3.633h16.896v3.484h3.5v-6.486H257.672"/>
<path d="M258.15,476.55l-0.895-1.473h-13.377v3.008h7.584c-0.18,0.236-0.43,0.621-0.87,1.006c-0.328,0-1.488-0.004-1.488-0.004
	v1.572h-10.146v3.152h10.146v3.129c0,0.469-0.186,0.707-0.563,0.707c-0.37,0-3.251-0.002-3.251-0.002l1.395,3.17h2.675
	c2.369,0,3.569-0.85,3.569-2.627v-4.377h9.865v-3.152h-9.623C254.745,479.556,256.959,477.638,258.15,476.55"/>
<path d="M169.385,478.938c0,1.574-1.249,2.818-2.819,2.818c-1.572,0-2.849-1.244-2.821-2.818c0-1.572,1.275-2.82,2.821-2.82
	C168.111,476.118,169.385,477.366,169.385,478.938"/>
<polygon fill="#995854" points="1.904,20.527 1.904,22.443 0,23.037 1.904,23.631 1.904,25.549 3.078,23.997 4.981,24.591 
	3.805,23.037 4.981,21.485 3.078,22.079 "/>
<polygon fill="#995854" points="3.309,13.754 3.309,13.754 2.813,15.606 0.822,15.686 2.504,16.753 2.007,18.606 3.543,17.41 
	5.227,18.476 4.496,16.672 6.034,15.479 4.042,15.558 "/>
<polygon fill="#995854" points="6.957,7.991 6.957,7.991 5.846,9.557 3.952,8.94 5.161,10.524 4.049,12.09 5.908,11.502 
	7.117,13.087 7.056,11.14 8.912,10.555 7.018,9.938 "/>
<polygon fill="#995854" points="12.577,4.064 12.577,4.064 10.942,5.068 9.441,3.76 9.933,5.689 8.3,6.696 8.3,6.697 10.237,6.884 
	10.73,8.813 11.436,6.999 13.372,7.187 11.871,5.878 "/>
<polygon fill="#995854" points="2.21,27.499 2.21,27.499 2.826,29.317 1.214,30.488 3.207,30.439 3.822,32.257 4.437,30.41 
	6.429,30.363 4.817,29.27 5.433,27.422 3.822,28.593 "/>
<polygon fill="#995854" points="4.659,33.831 4.659,33.831 5.87,35.319 4.769,36.98 6.619,36.239 7.829,37.728 7.762,35.781 
	9.61,35.041 7.72,34.581 7.652,32.633 6.551,34.295 "/>
<polygon fill="#995854" points="9.188,38.863 9.188,38.863 10.891,39.751 10.539,41.711 11.942,40.298 13.645,41.185 12.81,39.425 
	14.213,38.011 12.294,38.337 11.461,36.578 11.109,38.537 "/>
<polygon fill="#995854" points="20.737,41.701 18.819,41.701 18.225,43.604 17.633,41.701 15.715,41.701 17.267,40.527 
	16.675,38.625 18.225,39.801 19.778,38.625 19.185,40.527 "/>
<polygon fill="#995854" points="34.548,20.527 34.548,22.443 36.451,23.037 34.548,23.631 34.548,25.549 33.373,23.997 
	31.471,24.591 32.647,23.037 31.471,21.485 33.373,22.079 "/>
<polygon fill="#995854" points="33.142,13.754 33.142,13.754 33.639,15.606 35.629,15.686 33.948,16.753 34.445,18.606 
	32.909,17.41 31.225,18.476 31.957,16.672 30.418,15.479 32.411,15.558 "/>
<polygon fill="#995854" points="29.496,7.991 29.496,7.991 30.606,9.557 32.5,8.94 31.292,10.524 32.402,12.09 30.545,11.502 
	29.334,13.087 29.397,11.14 27.541,10.555 29.434,9.938 "/>
<polygon fill="#995854" points="23.875,4.064 23.875,4.064 25.51,5.068 27.011,3.76 26.518,5.689 28.152,6.696 28.152,6.697 
	26.214,6.884 25.723,8.813 25.017,6.999 23.079,7.187 24.581,5.878 "/>
<polygon fill="#995854" points="34.242,27.499 34.242,27.499 33.627,29.317 35.238,30.488 33.247,30.439 32.631,32.257 
	32.015,30.41 30.024,30.363 31.636,29.27 31.017,27.422 32.63,28.593 "/>
<polygon fill="#995854" points="31.793,33.831 31.793,33.831 30.583,35.319 31.684,36.98 29.835,36.239 28.624,37.728 28.69,35.781 
	26.84,35.041 28.732,34.581 28.8,32.633 29.901,34.295 "/>
<polygon fill="#995854" points="27.264,38.863 27.264,38.863 25.561,39.751 25.914,41.711 24.511,40.298 22.808,41.185 
	23.643,39.425 22.238,38.011 24.157,38.337 24.991,36.578 25.344,38.537 "/>
<polygon fill="#995854" points="21.966,2.83 19.109,2.83 18.225,0 17.342,2.83 14.485,2.83 16.797,4.582 15.915,7.415 18.225,5.665 
	20.54,7.415 19.655,4.582 "/>
<path fill-rule="evenodd" clip-rule="evenodd" fill="#995854" d="M12.175,11.578v9.525h5.358v-9.521L12.175,11.578z M13.488,12.846
	h2.743V15.7h-2.743V12.846z M13.481,16.976h2.726v2.862h-2.726V16.976z M24.307,11.578v10.938h-1.296v-3.003h-3.413
	c0,0,0.014,0.064,0,0.424c-0.011,0.357-0.087,0.936-0.307,1.423c-0.22,0.486-0.783,1.077-0.783,1.077l-0.834-1.001
	c0,0,0.5-0.563,0.566-0.858c0.049-0.231,0.063-1.168,0.063-1.168v-7.832H24.307z M19.638,12.859h3.36v2.059h-3.36V12.859z
	 M19.65,16.19h3.348v2.051H19.65V16.19z M14.383,22.958h7.695v5.105H18.89v0.719h4.107v-2.79h1.315v4.026H18.89v0.723h4.436v1.24
	H18.89v0.717h5.422v1.238h-12.18v-1.238h5.441v-0.717h-4.439v-1.24h4.437v-0.719h-5.42v-4.023h1.32v2.785h4.1v-0.723h-3.188V22.958z
	 M20.768,24.9h-5.076v-0.696h5.076V24.9z M20.765,26.825h-5.074v-0.688h5.074V26.825z"/>
<path d="M55.281,34.185h-1.169c-0.059,0-0.114,0.031-0.139,0.072l-3.398,4.841c-0.008,0.016-0.023,0.016-0.035,0.016
	c-0.01,0-0.028,0-0.041-0.016l-3.307-4.841c-0.03-0.041-0.087-0.072-0.138-0.072h-1.363c-0.056,0-0.096,0.038-0.096,0.089v6.666
	c0,0.05,0.04,0.095,0.096,0.095h1.255c0.05,0,0.092-0.045,0.092-0.095v-3.756c0.028-0.009,2.534,3.783,2.534,3.783
	c0.032,0.03,0.097,0.067,0.141,0.067h0.899c0.05,0,0.11-0.026,0.14-0.067l2.708-3.797c0.02-0.013,0.021-0.009,0.021,0.014v3.756
	c0,0.05,0.042,0.095,0.098,0.095h1.702c0.054,0,0.089-0.045,0.089-0.095v-6.666C55.37,34.223,55.334,34.185,55.281,34.185"/>
<path d="M64.488,40.003h-3.574c-0.041,0-0.067-0.036-0.067-0.067v-1.781c0-0.033,0.026-0.067,0.067-0.067h2.551
	c0.049,0,0.09-0.045,0.09-0.093v-0.879c0-0.052-0.041-0.09-0.09-0.09h-2.551c-0.041,0-0.067-0.035-0.067-0.073v-1.673
	c0-0.036,0.026-0.072,0.067-0.072h3.33c0.047,0,0.09-0.041,0.09-0.086v-0.847c0-0.052-0.043-0.09-0.09-0.09h-5.383
	c-0.047,0-0.086,0.038-0.086,0.09v6.666c0,0.049,0.039,0.094,0.086,0.094h5.627c0.056,0,0.088-0.045,0.088-0.094v-0.842
	C64.576,40.044,64.544,40.003,64.488,40.003"/>
<path d="M70.111,34.185h-1.892c-0.052,0-0.087,0.038-0.087,0.089v6.666c0,0.05,0.035,0.095,0.087,0.095h1.892
	c0.046,0,0.084-0.045,0.084-0.095v-6.666C70.195,34.223,70.157,34.185,70.111,34.185"/>
<path d="M77.646,36.907c-0.868-0.236-1.41-0.423-1.584-0.545c-0.184-0.115-0.27-0.294-0.27-0.529c0-0.2,0.118-0.354,0.363-0.479
	c0.242-0.131,0.623-0.194,1.17-0.194l1.09,0.072l0.948,0.16c0.023,0.002,0.049,0,0.07-0.016c0.019-0.005,0.025-0.035,0.025-0.057
	v-0.964c0,0-0.057-0.013-0.128-0.028c-0.098-0.017-0.213-0.041-0.359-0.07c-0.201-0.041-0.38-0.072-0.38-0.072
	c-0.408-0.061-0.862-0.086-1.377-0.086c-1.048,0-1.888,0.185-2.48,0.543c-0.611,0.362-0.902,0.808-0.902,1.329
	c0,0.557,0.187,0.995,0.563,1.316c0.369,0.326,0.899,0.586,1.572,0.779c0.846,0.255,1.358,0.461,1.535,0.615
	c0.181,0.152,0.264,0.324,0.264,0.516c0,0.315-0.121,0.534-0.366,0.657c-0.248,0.138-0.698,0.199-1.375,0.199
	c-0.46,0-0.946-0.037-1.442-0.129l-0.995-0.271c-0.027-0.008-0.053-0.008-0.069,0.008c-0.017,0.008-0.021,0.039-0.021,0.059v1.091
	c0.3,0.095,0.677,0.174,1.114,0.229c0.467,0.045,1.018,0.079,1.669,0.079c1.139,0,2.036-0.171,2.677-0.511
	c0.636-0.348,0.973-0.889,0.973-1.613c0-0.469-0.18-0.894-0.53-1.234C79.058,37.42,78.482,37.146,77.646,36.907"/>
<path d="M88.755,40.003h-3.57c-0.038,0-0.067-0.036-0.067-0.067v-1.781c0-0.033,0.029-0.067,0.067-0.067h2.552
	c0.051,0,0.093-0.045,0.093-0.093v-0.879c0-0.052-0.042-0.09-0.093-0.09h-2.552c-0.044,0-0.067-0.035-0.067-0.073v-1.673
	c0-0.032,0.029-0.072,0.067-0.072h3.328c0.045,0,0.089-0.041,0.089-0.086v-0.847c0-0.052-0.044-0.09-0.089-0.09h-5.374
	c-0.053,0-0.09,0.038-0.09,0.09v6.666c0,0.049,0.037,0.094,0.09,0.094h5.616c0.054,0,0.094-0.045,0.094-0.094v-0.842
	C88.849,40.044,88.809,40.003,88.755,40.003"/>
<path d="M105.138,34.2v-0.009v-0.028h-0.003c-0.018-0.053-0.069-0.094-0.125-0.094h-1.734c-0.061,0-0.106,0.041-0.122,0.094h-0.008
	v0.028c0,0.003-0.002,0.007-0.002,0.007v2.654c0,0.005,0.002,0.007,0.002,0.01v2.461c0,0.245-0.09,0.421-0.263,0.523
	c-0.177,0.106-0.385,0.156-0.631,0.156c-0.247,0-0.5-0.022-0.752-0.067c-0.252-0.043-0.381-0.083-0.537-0.128
	c0,0-0.012-0.005-0.015-0.005c-0.053,0-0.093,0.041-0.093,0.09v0.895c0,0.045,0.029,0.075,0.071,0.084
	c0.174,0.075,0.392,0.132,0.673,0.179c0.286,0.043,0.665,0.064,1.144,0.064c0.802,0,1.406-0.154,1.799-0.48
	c0.401-0.32,0.596-0.714,0.596-1.178v-2.597v-0.007V34.2z"/>
<path d="M124.61,34.166h-1.28c-0.045,0-0.08,0.034-0.08,0.075v0.637l0.018,0.832v2.323c-0.008,0.029-0.014,0.085-0.055,0.085
	c-0.021,0-0.041-0.011-0.045-0.019l-3.931-3.641l-0.244-0.241c-0.072-0.055-0.117-0.055-0.157-0.055h-0.816
	c-0.045,0-0.079,0.035-0.079,0.073v6.782c0,0.038,0.034,0.074,0.079,0.074h1.272c0.043,0,0.081-0.047,0.081-0.089v-0.11v-4.025
	c0.004-0.009,0.006-0.02,0.025-0.032c0.023-0.015,0.05-0.005,0.074,0.015l4.067,3.77l0.438,0.407
	c0.05,0.054,0.103,0.065,0.143,0.065h0.49c0.042,0,0.073-0.036,0.073-0.074v-6.777C124.683,34.2,124.652,34.166,124.61,34.166"/>
<path d="M130.152,34.185h-1.889c-0.056,0-0.09,0.038-0.09,0.089v6.666c0,0.05,0.034,0.095,0.09,0.095h1.889
	c0.045,0,0.09-0.045,0.09-0.095v-6.666C130.242,34.223,130.197,34.185,130.152,34.185"/>
<path d="M140.592,37.873c0,1.066-0.327,1.872-0.976,2.435c-0.648,0.558-1.5,0.84-2.564,0.84c-1.055,0-1.911-0.282-2.563-0.84
	c-0.655-0.563-0.981-1.36-0.981-2.412v-0.385c0-0.975,0.306-1.771,0.913-2.392c0.61-0.619,1.498-0.925,2.677-0.925
	c1.143,0,2.023,0.314,2.61,0.938c0.592,0.623,0.884,1.416,0.884,2.378V37.873z M138.635,37.785v-0.185
	c0-0.828-0.097-1.448-0.277-1.847c-0.185-0.405-0.621-0.61-1.306-0.61c-0.642,0-1.062,0.182-1.272,0.542
	c-0.208,0.356-0.309,0.995-0.309,1.915v0.164c0,0.924,0.091,1.565,0.282,1.91c0.184,0.344,0.614,0.513,1.299,0.513
	c0.552,0,0.957-0.18,1.207-0.554C138.507,39.258,138.635,38.647,138.635,37.785"/>
<path d="M149.528,40.864c0-1.086-0.171-1.942-0.521-2.494c-0.346-0.548-0.865-0.901-1.548-1.067c0.6-0.038,1.049-0.175,1.35-0.411
	c0.302-0.232,0.451-0.541,0.451-0.929v-0.367c0-0.409-0.174-0.762-0.52-1.044c-0.348-0.278-0.941-0.421-1.77-0.421h-1.509h-0.014
	h-1.822c-0.046,0-0.075,0.032-0.075,0.073v6.684c0,0.043,0.029,0.073,0.075,0.073h1.822c0.039,0,0.074-0.03,0.074-0.073v-3.028
	h0.463c0.542,0,0.942,0.235,1.195,0.709c0.248,0.47,0.379,1.249,0.396,2.264v0.004v0.048c0,0.041,0.029,0.076,0.072,0.076h1.808
	c0.039,0,0.073-0.035,0.073-0.076V40.864z M147.35,36.101c0,0.269-0.101,0.466-0.302,0.6c-0.196,0.136-0.534,0.2-0.995,0.2h-0.532
	v-1.808h0.643c0.387,0,0.688,0.06,0.884,0.187c0.201,0.126,0.302,0.341,0.302,0.637V36.101z"/>
<path d="M94.335,34.163H92.45c-0.056,0-0.095,0.037-0.095,0.089v6.685c0,0.051,0.039,0.091,0.095,0.091h1.885
	c0.055,0,0.097-0.04,0.097-0.091v-6.685C94.433,34.2,94.391,34.163,94.335,34.163"/>
<path d="M114.73,34.229h-1.384c-0.039,0-0.091,0.036-0.091,0.086v4.72c0,0.416-0.122,0.721-0.368,0.89
	c-0.244,0.155-0.629,0.245-1.148,0.245c-0.551,0-0.941-0.102-1.166-0.279c-0.223-0.179-0.321-0.74-0.321-0.752l-0.019-0.162v-4.661
	c0-0.05-0.041-0.086-0.092-0.086h-1.906c-0.041,0-0.083,0.036-0.083,0.086v4.561c0,0.771,0.264,1.361,0.795,1.75
	c0.514,0.394,1.385,0.597,2.588,0.597c1.117,0,1.945-0.182,2.483-0.551c0.528-0.366,0.777-1.45,0.786-1.455l0.015-0.168v-4.733
	C114.819,34.266,114.78,34.229,114.73,34.229"/>
<path d="M193.314,36.871c-0.881-0.236-1.412-0.426-1.595-0.545c-0.184-0.117-0.272-0.296-0.272-0.531
	c0-0.199,0.121-0.356,0.363-0.484c0.247-0.132,0.623-0.196,1.182-0.196l1.089,0.072l0.958,0.16c0.028,0.004,0.051,0,0.074-0.014
	c0.013-0.002,0.025-0.038,0.025-0.059v-0.967c0,0-0.058-0.014-0.133-0.033c-0.1-0.017-0.212-0.04-0.358-0.069
	c-0.2-0.04-0.384-0.072-0.384-0.072c-0.409-0.059-0.868-0.086-1.379-0.086c-1.065,0-1.904,0.183-2.502,0.543
	c-0.613,0.367-0.903,0.812-0.903,1.339c0,0.56,0.188,1.003,0.563,1.322c0.37,0.327,0.907,0.588,1.582,0.787
	c0.85,0.254,1.367,0.463,1.547,0.622c0.174,0.151,0.264,0.322,0.264,0.517c0,0.315-0.125,0.535-0.369,0.661
	c-0.252,0.141-0.704,0.201-1.378,0.201c-0.467,0-0.952-0.04-1.454-0.133l-1.003-0.271c-0.026-0.009-0.049-0.009-0.069,0.004
	c-0.019,0.01-0.022,0.042-0.022,0.062v1.095c0.306,0.099,0.687,0.176,1.118,0.228c0.479,0.054,1.029,0.085,1.679,0.085
	c1.149,0,2.051-0.172,2.689-0.514c0.649-0.346,0.983-0.894,0.983-1.621c0-0.473-0.181-0.896-0.528-1.248
	C194.736,37.385,194.153,37.113,193.314,36.871"/>
<path d="M204.099,39.985h-3.593c-0.043,0-0.072-0.036-0.072-0.067v-1.791c0-0.038,0.029-0.069,0.072-0.069h2.567
	c0.048,0,0.09-0.041,0.09-0.094V37.08c0-0.047-0.042-0.09-0.09-0.09h-2.567c-0.048,0-0.072-0.034-0.072-0.074v-1.678
	c0-0.034,0.029-0.072,0.072-0.072h3.339c0.048,0,0.099-0.043,0.099-0.088v-0.854c0-0.051-0.051-0.092-0.099-0.092h-5.399
	c-0.052,0-0.088,0.041-0.088,0.092v6.706c0,0.045,0.036,0.089,0.088,0.089h5.653c0.05,0,0.087-0.044,0.087-0.089V40.08
	C204.186,40.025,204.149,39.985,204.099,39.985"/>
<path d="M213.546,34.08h-1.295c-0.044,0-0.078,0.031-0.078,0.077v0.638l0.02,0.835v2.342c-0.008,0.034-0.016,0.081-0.054,0.081
	c-0.023,0-0.041-0.009-0.052-0.015l-3.957-3.66l-0.242-0.251c-0.076-0.053-0.113-0.052-0.156-0.052h-0.828
	c-0.04,0-0.077,0.035-0.077,0.076v6.827c0,0.04,0.037,0.076,0.077,0.076h1.287c0.041,0,0.08-0.051,0.08-0.094v-0.108v-4.049
	c0.004-0.014,0.01-0.025,0.025-0.034c0.022-0.021,0.049-0.007,0.075,0.009l4.09,3.8l0.442,0.411
	c0.049,0.052,0.103,0.065,0.143,0.065h0.5c0.038,0,0.073-0.036,0.073-0.076v-6.821C213.62,34.111,213.584,34.08,213.546,34.08"/>
<path d="M219.059,34.072h-1.896c-0.059,0-0.097,0.038-0.097,0.091v6.734c0,0.042,0.038,0.091,0.097,0.091h1.896
	c0.056,0,0.092-0.049,0.092-0.091v-6.734C219.151,34.11,219.115,34.072,219.059,34.072"/>
<path d="M229.642,37.706c0,1.072-0.33,1.896-0.979,2.455c-0.657,0.566-1.519,0.843-2.592,0.843c-1.061,0-1.922-0.276-2.578-0.843
	c-0.659-0.56-0.988-1.374-0.988-2.43v-0.388c0-0.981,0.305-1.787,0.923-2.409c0.616-0.622,1.512-0.935,2.691-0.935
	c1.158,0,2.036,0.317,2.631,0.949c0.598,0.629,0.893,1.431,0.893,2.395V37.706z M227.664,37.618v-0.185
	c0-0.837-0.091-1.457-0.278-1.862c-0.182-0.405-0.623-0.607-1.314-0.607c-0.642,0-1.07,0.178-1.274,0.542
	c-0.216,0.358-0.313,1.003-0.313,1.928v0.167c0,0.935,0.088,1.574,0.276,1.918c0.191,0.354,0.623,0.521,1.311,0.521
	c0.562,0,0.965-0.185,1.223-0.559C227.54,39.104,227.664,38.487,227.664,37.618"/>
<path d="M238.607,40.796c0-1.092-0.17-1.955-0.518-2.507c-0.347-0.553-0.869-0.914-1.566-1.071c0.61-0.043,1.061-0.183,1.365-0.417
	c0.299-0.238,0.448-0.552,0.448-0.938V35.49c0-0.412-0.172-0.765-0.526-1.047c-0.35-0.28-0.939-0.423-1.774-0.423h-1.523
	c-0.004,0-0.006-0.003-0.013-0.003h-1.84c-0.038,0-0.069,0.032-0.069,0.074v6.728c0,0.043,0.031,0.078,0.069,0.078h1.84
	c0.043,0,0.074-0.035,0.074-0.078v-3.047h0.467c0.55,0,0.949,0.238,1.2,0.718c0.253,0.471,0.387,1.252,0.405,2.271v0.011v0.044
	c0,0.042,0.031,0.076,0.069,0.076h1.818c0.044,0,0.073-0.034,0.073-0.076V40.796z M236.416,36.001c0,0.271-0.099,0.472-0.301,0.604
	c-0.204,0.138-0.533,0.202-1.003,0.202h-0.538v-1.82h0.646c0.397,0,0.691,0.062,0.896,0.188c0.202,0.129,0.301,0.345,0.301,0.638
	V36.001z"/>
<path d="M252.571,34.05h-1.898c-0.057,0-0.099,0.04-0.099,0.09v2.894h-2.311V34.14c0-0.05-0.042-0.09-0.095-0.09h-1.897
	c-0.054,0-0.096,0.04-0.096,0.09v6.735c0,0.045,0.042,0.092,0.096,0.092h1.897c0.053,0,0.095-0.047,0.095-0.092v-2.742h2.311v2.742
	c0,0.045,0.042,0.092,0.099,0.092h1.898c0.055,0,0.096-0.047,0.096-0.092V34.14C252.667,34.09,252.625,34.05,252.571,34.05"/>
<path d="M277.976,34.157h-1.898c-0.059,0-0.095,0.036-0.095,0.086v2.894h-2.319v-2.894c0-0.05-0.037-0.086-0.092-0.086h-1.893
	c-0.062,0-0.103,0.036-0.103,0.086v6.732c0,0.045,0.041,0.091,0.103,0.091h1.893c0.055,0,0.092-0.046,0.092-0.091v-2.74h2.319v2.74
	c0,0.045,0.036,0.091,0.095,0.091h1.898c0.053,0,0.096-0.046,0.096-0.091v-6.732C278.072,34.193,278.029,34.157,277.976,34.157"/>
<path d="M268.622,39.577V37.67v-0.002v-0.309c0-0.045-0.038-0.079-0.083-0.079h-2.89c-0.043,0-0.077,0.034-0.077,0.079v0.775
	c0,0.046,0.034,0.083,0.077,0.083h1.221c0.012,0,0.035,0,0.052,0.012c0.016,0.018,0.021,0.03,0.021,0.064v0.014v1.319
	c-0.079,0.112-0.26,0.217-0.524,0.302c-0.266,0.086-0.565,0.127-0.89,0.127c-0.596,0-1.063-0.171-1.399-0.527
	c-0.338-0.352-0.504-0.987-0.504-1.906v-0.099c0-0.884,0.217-1.515,0.646-1.894c0.436-0.38,1.012-0.57,1.727-0.57
	c0.402,0,0.762,0.046,1.07,0.127c0.253,0.069,0.414,0.112,0.58,0.168v0.003c0,0,0.042,0.014,0.091,0.029
	c0,0,0.004,0.001,0.009,0.003c0.004,0.002,0.014,0.004,0.017,0.004c0.061,0.019,0.071-0.036,0.071-0.036s0.003-0.986,0-1.018
	c-0.011-0.031-0.027-0.05-0.04-0.057c-0.163-0.071-0.376-0.123-0.716-0.193c-0.341-0.072-0.763-0.108-1.264-0.108
	c-1.331,0-2.365,0.313-3.101,0.935c-0.738,0.626-1.105,1.433-1.105,2.419v0.376c0,1.11,0.335,1.954,1.003,2.538
	c0.663,0.576,1.583,0.866,2.749,0.866c0.847,0,1.529-0.107,2.05-0.324c0.35-0.142,0.608-0.286,0.832-0.463
	c0.015-0.01,0.03-0.021,0.051-0.041c0.084-0.072,0.161-0.147,0.23-0.231v-0.003c0.013-0.009,0.02-0.018,0.032-0.027
	c0.065-0.074,0.065-0.163,0.065-0.163l-0.002-0.287V39.577z"/>
<path d="M258.232,34.059h-1.905c-0.053,0-0.086,0.04-0.086,0.095v6.711c0,0.048,0.033,0.096,0.086,0.096h1.905
	c0.045,0,0.09-0.048,0.09-0.096v-6.711C258.322,34.099,258.277,34.059,258.232,34.059"/>
<path d="M319.045,37.706c0,1.072-0.329,1.896-0.981,2.455c-0.655,0.566-1.51,0.843-2.59,0.843c-1.063,0-1.92-0.276-2.574-0.843
	c-0.662-0.56-0.988-1.374-0.988-2.43v-0.388c0-0.981,0.307-1.787,0.919-2.409c0.616-0.622,1.51-0.935,2.694-0.935
	c1.158,0,2.033,0.317,2.632,0.949c0.593,0.629,0.889,1.431,0.889,2.395V37.706z M317.073,37.618v-0.185
	c0-0.837-0.094-1.457-0.279-1.862c-0.184-0.405-0.624-0.607-1.319-0.607c-0.642,0-1.066,0.178-1.279,0.542
	c-0.206,0.358-0.311,1.003-0.311,1.928v0.167c0,0.935,0.096,1.574,0.288,1.918c0.183,0.354,0.622,0.521,1.302,0.521
	c0.564,0,0.969-0.185,1.221-0.559C316.946,39.104,317.073,38.487,317.073,37.618"/>
<path d="M328.243,37.706c0,1.072-0.333,1.896-0.983,2.455c-0.652,0.566-1.513,0.843-2.592,0.843c-1.061,0-1.918-0.276-2.578-0.843
	c-0.652-0.56-0.986-1.374-0.986-2.43v-0.388c0-0.981,0.306-1.787,0.921-2.409c0.614-0.622,1.509-0.935,2.692-0.935
	c1.162,0,2.041,0.317,2.639,0.949c0.592,0.629,0.888,1.431,0.888,2.395V37.706z M326.264,37.618v-0.185
	c0-0.837-0.091-1.457-0.278-1.862c-0.182-0.405-0.63-0.607-1.318-0.607c-0.645,0-1.064,0.178-1.274,0.542
	c-0.213,0.358-0.313,1.003-0.313,1.928v0.167c0,0.935,0.093,1.574,0.287,1.918c0.184,0.354,0.615,0.521,1.3,0.521
	c0.564,0,0.968-0.185,1.22-0.559C326.136,39.104,326.264,38.487,326.264,37.618"/>
<path d="M290.466,40.711c-0.023,0.004-0.043,0.02-0.065,0.029C290.423,40.73,290.443,40.715,290.466,40.711 M285.473,39.74
	c0.179,0.047,0.443,0.12,0.626,0.165C285.855,39.853,285.629,39.787,285.473,39.74 M289.859,35.155
	c-0.146-0.014-0.341-0.024-0.497-0.034C289.539,35.131,289.695,35.137,289.859,35.155 M289.375,36.886
	c-0.885-0.241-1.424-0.427-1.61-0.549c-0.179-0.119-0.267-0.299-0.267-0.538c0-0.198,0.117-0.35,0.365-0.479
	c0.245-0.133,0.627-0.198,1.183-0.198l1.103,0.072l0.962,0.164c0.02,0,0.045,0,0.063-0.017c0.019-0.006,0.029-0.037,0.029-0.058
	v-0.973c0,0-0.06-0.013-0.132-0.027c-0.1-0.022-0.216-0.047-0.363-0.073c-0.196-0.041-0.381-0.075-0.381-0.075
	c-0.413-0.058-0.876-0.088-1.389-0.088c-1.07,0-1.912,0.184-2.509,0.546c-0.615,0.371-0.912,0.819-0.912,1.344
	c0,0.563,0.188,1.012,0.567,1.333c0.372,0.329,0.91,0.59,1.592,0.79c0.853,0.253,1.369,0.462,1.549,0.622
	c0.179,0.15,0.27,0.324,0.27,0.52c0,0.313-0.127,0.539-0.375,0.665c-0.244,0.137-0.701,0.202-1.385,0.202
	c-0.469,0-0.957-0.043-1.46-0.138l-1.002-0.269c-0.026-0.012-0.056-0.012-0.073,0.003c-0.021,0.013-0.022,0.041-0.022,0.063v1.1
	c0.306,0.1,0.686,0.172,1.127,0.231c0.474,0.049,1.026,0.085,1.69,0.085c1.143,0,2.053-0.173,2.699-0.519
	c0.645-0.351,0.982-0.897,0.982-1.627c0-0.478-0.18-0.899-0.533-1.25C290.802,37.406,290.222,37.128,289.375,36.886"/>
<path d="M296.545,35.662c0.404-0.437,0.958-0.653,1.674-0.653c0.387,0,0.718,0.026,1,0.076c0.277,0.048,0.399,0.069,0.559,0.131
	c0.011,0.007,0.024,0.014,0.04,0.014c0.043,0,0.071-0.036,0.071-0.075v-0.911c0-0.027-0.015-0.052-0.035-0.065
	c-0.184-0.067-0.395-0.12-0.726-0.164c-0.33-0.041-0.743-0.062-1.23-0.062c-1.153,0-2.101,0.312-2.862,0.938
	c-0.765,0.625-1.143,1.449-1.143,2.484v0.276c0,1.11,0.378,1.949,1.122,2.519c0.753,0.574,1.72,0.857,2.905,0.857
	c0.465,0,0.878-0.031,1.236-0.094c0.351-0.068,0.548-0.114,0.682-0.176c0.032-0.01,0.051-0.033,0.051-0.073v-0.907
	c0-0.042-0.028-0.076-0.071-0.076c-0.011,0-0.022,0.003-0.033,0.008c-0.176,0.057-0.322,0.092-0.628,0.157
	c-0.309,0.071-0.677,0.109-1.118,0.109c-0.646,0-1.164-0.198-1.535-0.593c-0.375-0.393-0.567-0.998-0.567-1.82v-0.096
	C295.936,36.697,296.144,36.095,296.545,35.662"/>
<path d="M309.064,34.05h-1.899c-0.059,0-0.097,0.04-0.097,0.09v2.894h-2.314V34.14c0-0.05-0.036-0.09-0.096-0.09h-1.892
	c-0.061,0-0.102,0.04-0.102,0.09v6.735c0,0.045,0.041,0.092,0.102,0.092h1.892c0.06,0,0.096-0.047,0.096-0.092v-2.742h2.314v2.742
	c0,0.045,0.038,0.092,0.097,0.092h1.899c0.05,0,0.098-0.047,0.098-0.092V34.14C309.162,34.09,309.114,34.05,309.064,34.05"/>
<path d="M336.729,39.988h-3.321v-5.816c0-0.025-0.028-0.053-0.053-0.053h-1.939c-0.029,0-0.047,0.027-0.047,0.053v6.817
	c0,0.029,0.018,0.05,0.047,0.05h5.313c0.027,0,0.046-0.021,0.046-0.05v-0.954C336.775,40.009,336.756,39.988,336.729,39.988"/>
<path d="M161.318,34.234l3.152,6.878h-1.687l-0.842-1.839h-2.613l-0.884,1.839h-1.126l3.286-6.878H161.318z M159.634,38.646h2.028
	l-0.998-2.176L159.634,38.646z"/>
<path d="M175.224,34.382h2.441c0.627,0,1.204,0.073,1.729,0.219c0.528,0.146,0.979,0.36,1.36,0.644
	c0.379,0.282,0.675,0.627,0.885,1.037c0.213,0.409,0.317,0.878,0.317,1.403c0,0.474-0.089,0.918-0.266,1.337
	c-0.179,0.416-0.439,0.78-0.782,1.089c-0.345,0.31-0.767,0.553-1.266,0.732c-0.5,0.18-1.073,0.27-1.719,0.27h-2.701V34.382z
	 M176.871,40.422h0.881c0.324,0,0.631-0.06,0.915-0.179c0.287-0.121,0.537-0.296,0.754-0.527c0.213-0.232,0.383-0.517,0.508-0.854
	c0.125-0.337,0.186-0.725,0.186-1.162c0-0.378-0.059-0.727-0.175-1.048c-0.115-0.322-0.279-0.603-0.489-0.839
	c-0.21-0.235-0.459-0.42-0.749-0.552c-0.289-0.133-0.604-0.198-0.949-0.198h-0.881V40.422z"/>
<path d="M172.93,34.338h-1.281c-0.045,0-0.08,0.033-0.08,0.074v0.637l0.019,0.832v2.322c-0.007,0.03-0.014,0.085-0.056,0.085
	c-0.021,0-0.04-0.01-0.045-0.019l-3.931-3.64l-0.244-0.241c-0.072-0.056-0.117-0.056-0.155-0.056h-0.817
	c-0.045,0-0.079,0.036-0.079,0.074v6.78c0,0.039,0.034,0.076,0.079,0.076h1.272c0.043,0,0.081-0.047,0.081-0.09v-0.111V37.04
	c0.003-0.01,0.006-0.021,0.023-0.033c0.023-0.016,0.053-0.005,0.075,0.014l4.068,3.771l0.437,0.408
	c0.05,0.052,0.103,0.064,0.144,0.064h0.49c0.041,0,0.072-0.037,0.072-0.076v-6.775C173.002,34.371,172.971,34.338,172.93,34.338"/>
<path d="M61.353,12.295h4.645v2.632H61.35c0-0.047,0.003-0.091,0.003-0.142V12.295 M61.353,6.643h4.645v2.608h-4.645V6.643z
	 M57.87,14.756c0,6.905-2.891,8.482-5.515,10.131l2.516,2.39c3.456-1.957,5.516-5.255,6.21-9.278h4.917v4.885
	c0,0.714-0.235,0.978-0.868,0.978h-2.221l1.154,3.322h1.55c2.709,0,3.868-1.109,3.868-3.708V3.594H57.87V14.756z"/>
<path d="M52.648,9.865h-3.293V6.642h3.293V9.865z M52.648,16.308h-3.293v-3.399h3.293V16.308z M45.833,19.32h10.169V3.591H45.833
	V19.32z"/>
<path d="M88.346,15.86h-3.273c0.203-0.287,0.38-0.556,0.536-0.796l-1.685-1.09h4.422V15.86 M83.824,9.9h12.174v1.367H83.824V9.9z
	 M83.824,6.215h12.174v1.354H83.824V6.215z M92.149,22.815h6.169v-2.74h-6.169v-1.32h7.858V15.86h-7.858v-1.886h7.483V3.594H80.213
	v10.381h1.933c-1.271,1.86-2.978,4.164-5.013,5.852c0,0.001,2.636,2.178,2.636,2.178c0.831-0.633,1.99-1.901,3.097-3.249
	c1.99-0.004,5.322-0.004,5.48,0v1.32h-6.001v2.74h6.001v1.421H78.65v2.946h22.867v-2.946h-9.368V22.815z"/>
<path d="M128.844,18.798h-6.05v9.334h-3.403v-9.334h-5.709v1.542h-3.403V7.458h9.112V2.845h3.403v4.613h9.451v12.548h-3.401V18.798z
	 M119.391,10.554h-5.709v5.063h5.709V10.554z M128.844,10.554h-6.05v5.063h6.05V10.554z"/>
<path d="M225.192,2.001h3.96v2.076h10.315v2.641h-24.369V4.077h10.094V2.001z M223.787,14.846h15.036v6.351
	c0.11,3.167-0.134,5.041-0.729,5.625c-0.471,0.635-1.837,1.072-4.105,1.314c-0.037-0.916-0.364-1.945-0.982-3.092h1.517
	c0.54-0.033,0.767-0.324,0.674-0.869v-6.686h-16.247v10.198h-3.314V14.846H223.787z M219.259,7.592h15.488v6.271h-15.488V7.592z
	 M220.921,18.474h12.084v6.46h-8.912v0.788h-3.172V18.474z M231.235,10.01h-8.463v1.437h8.463V10.01z M224.093,22.518h5.708v-1.631
	h-5.708V22.518z"/>
<path d="M250.092,2.001l3.318,0.872c-0.264,0.448-0.523,0.89-0.788,1.32h5.51v2.391c0.932-1.312,1.741-2.84,2.413-4.583l3.176,0.759
	c-0.225,0.506-0.445,0.984-0.674,1.434h8.35v2.643h-4.58c0.259,0.412,0.515,0.843,0.759,1.293l-3.092,1.011
	c-0.374-0.804-0.794-1.571-1.267-2.304h-1.57c-0.435,0.732-0.867,1.388-1.296,1.963h0.279v1.436h8.575v2.727h-8.575v1.433h10.989
	v2.644h-5.059v1.657h4.188v2.616h-4.188v3.733c0,1.221-0.366,1.979-1.096,2.281c-0.597,0.317-2.061,0.478-4.384,0.478
	c-0.057-0.844-0.347-1.838-0.868-2.979h3.063v-3.513h-9.841c1.37,0.655,2.561,1.424,3.575,2.304l-1.633,2.529
	c-1.331-1.126-2.652-2.068-3.963-2.839l1.401-1.994h-5.14v-2.616h15.6v-1.657h-16.81v-2.644h10.765v-1.433h-7.896v-2.727h7.896
	V8.799h1.546c-0.484-0.408-1.004-0.776-1.546-1.093c0.244-0.284,0.478-0.575,0.704-0.87h-2.447c0.227,0.446,0.438,0.914,0.648,1.403
	l-3.065,1.011c-0.28-0.842-0.61-1.648-0.982-2.414h-1.151c-1.014,1.403-2.024,2.574-3.035,3.511
	c-0.735-0.842-1.578-1.548-2.534-2.107C247.28,6.57,248.857,4.492,250.092,2.001"/>
<path d="M172.34,7.145h3.43V2.313h3.293v4.832h2.301v3.202h-2.301v1.768c1.082,1.448,2.291,2.646,3.622,3.602
	c-0.9,0.79-1.527,1.631-1.881,2.529c-0.659-0.506-1.24-1.021-1.741-1.545v10.987h-3.293V18.02c-0.731,1.558-1.507,2.953-2.331,4.189
	c-0.282-1.387-0.862-2.596-1.742-3.625c0.918-0.993,1.704-2.221,2.361-3.682c0.596-1.331,1.131-2.853,1.603-4.556h-3.32V7.145z"/>
<path d="M198.058,24.823c-0.711,0.918-1.227,1.987-1.547,3.202c-1.607-0.618-3.128-1.421-4.549-2.416
	c-0.844-0.523-1.623-1.105-2.336-1.743l-0.027,0.029c-1.856,1.63-4.424,3.074-7.699,4.328c-0.448-1.049-1.068-2.033-1.859-2.949
	c3.303-1.104,5.766-2.382,7.395-3.826c-1.291-1.592-2.411-3.499-3.343-5.732l2.867-1.543c0.655,1.871,1.524,3.513,2.612,4.915
	c0.934-1.311,1.854-2.947,2.756-4.915l2.975,1.88c-1.141,2.192-2.285,4.011-3.423,5.453c0.428,0.356,0.876,0.703,1.342,1.04
	C194.44,23.37,196.054,24.129,198.058,24.823"/>
<path d="M198.594,12.765c-0.995,0.863-1.688,1.771-2.083,2.727c-1.088-0.621-2.04-1.285-2.866-1.994
	c-1.084-0.843-2.067-1.79-2.952-2.84l1.971-1.969h-6.857l2.47,1.773c-1.682,2.172-3.443,3.812-5.282,4.914
	c-0.563-1.01-1.254-1.879-2.079-2.611c0.9-0.449,1.646-0.937,2.249-1.463c0.616-0.541,1.415-1.412,2.389-2.613h-3.543V5.627h5.816
	V2.313h3.521v3.314h5.924v3.062h-4.156C194.744,10.338,196.571,11.697,198.594,12.765"/>
<path d="M310.209,7.145h3.432V2.313h3.289v4.832h2.305v3.202h-2.305v1.768c1.085,1.448,2.293,2.646,3.625,3.602
	c-0.898,0.79-1.528,1.631-1.882,2.529c-0.658-0.506-1.236-1.021-1.743-1.545v10.987h-3.289V18.02
	c-0.733,1.558-1.509,2.953-2.333,4.189c-0.281-1.387-0.86-2.596-1.744-3.625c0.922-0.993,1.706-2.221,2.367-3.682
	c0.591-1.331,1.13-2.853,1.599-4.556h-3.32V7.145z"/>
<path d="M335.929,24.823c-0.713,0.918-1.228,1.987-1.548,3.202c-1.606-0.618-3.128-1.421-4.546-2.416
	c-0.846-0.523-1.625-1.105-2.338-1.743l-0.029,0.029c-1.854,1.63-4.42,3.074-7.7,4.328c-0.444-1.049-1.066-2.033-1.856-2.949
	c3.3-1.104,5.767-2.382,7.393-3.826c-1.289-1.592-2.409-3.499-3.34-5.732l2.866-1.543c0.651,1.871,1.525,3.513,2.613,4.915
	c0.935-1.311,1.854-2.947,2.755-4.915l2.976,1.88c-1.142,2.192-2.29,4.011-3.426,5.453c0.431,0.356,0.877,0.703,1.343,1.04
	C332.313,23.37,333.923,24.129,335.929,24.823"/>
<path d="M336.463,12.765c-0.992,0.863-1.688,1.771-2.082,2.727c-1.089-0.621-2.039-1.285-2.863-1.994
	c-1.086-0.843-2.068-1.79-2.956-2.84l1.969-1.969h-6.853l2.471,1.773c-1.684,2.172-3.443,3.812-5.281,4.914
	c-0.565-1.01-1.257-1.879-2.083-2.611c0.901-0.449,1.646-0.937,2.25-1.463c0.617-0.541,1.416-1.412,2.388-2.613h-3.541V5.627h5.813
	V2.313h3.519v3.314h5.928v3.062h-4.157C332.614,10.338,334.442,11.697,336.463,12.765"/>
<path d="M148.329,7.306c-0.127-1.46-0.505-3.622-0.84-4.857h-3.453c0.388,1.353,0.765,3.519,0.861,4.857H148.329"/>
<path d="M154.083,7.306c-0.124-1.886-0.479-3.764-0.839-4.857h-3.444c0.333,1.141,0.735,3.374,0.851,4.857H154.083"/>
<path d="M159.559,8.104c0.66-1.392,2.094-4.515,2.184-4.837c0.015,0.003-3.465-0.939-3.465-0.939
	c-0.335,0.936-1.795,4.141-2.605,5.776h-14.827v6.634h3.441v-3.633h16.896v3.484h3.499V8.104H159.559"/>
<path d="M160.037,13.659l-0.896-1.473h-13.376v3.009h7.582c-0.176,0.235-0.426,0.62-0.865,1.006c-0.331,0-1.488-0.004-1.488-0.004
	v1.571h-10.147v3.152h10.147v3.13c0,0.469-0.185,0.707-0.566,0.707c-0.368,0-3.253-0.003-3.253-0.003l1.404,3.17h2.667
	c2.371,0,3.571-0.85,3.571-2.627v-4.377h9.866v-3.152h-9.623C156.634,16.665,158.848,14.748,160.037,13.659"/>
<path d="M286.443,7.306c-0.125-1.46-0.506-3.622-0.843-4.857h-3.45c0.386,1.353,0.767,3.519,0.857,4.857H286.443"/>
<path d="M292.198,7.306c-0.125-1.886-0.481-3.764-0.843-4.857h-3.444c0.33,1.141,0.738,3.374,0.853,4.857H292.198"/>
<path d="M297.672,8.104c0.66-1.392,2.098-4.515,2.18-4.837c0.02,0.003-3.466-0.939-3.466-0.939
	c-0.332,0.936-1.794,4.141-2.602,5.776h-14.826v6.634h3.44v-3.633h16.896v3.484h3.5V8.104H297.672"/>
<path d="M298.15,13.659l-0.895-1.473h-13.377v3.009h7.584c-0.18,0.235-0.43,0.62-0.87,1.006c-0.328,0-1.488-0.004-1.488-0.004v1.571
	h-10.146v3.152h10.146v3.13c0,0.469-0.186,0.707-0.563,0.707c-0.37,0-3.251-0.003-3.251-0.003l1.395,3.17h2.675
	c2.369,0,3.569-0.85,3.569-2.627v-4.377h9.865v-3.152h-9.623C294.745,16.665,296.959,14.748,298.15,13.659"/>
<path d="M209.385,16.048c0,1.574-1.249,2.819-2.819,2.819c-1.572,0-2.849-1.245-2.821-2.819c0-1.571,1.275-2.819,2.821-2.819
	C208.111,13.229,209.385,14.477,209.385,16.048"/>
</svg>
